<svg width="16" height="14" viewBox="0 0 16 14" fill="none" xmlns="http://www.w3.org/2000/svg">
<path d="M2.03894 13.5879C1.70705 13.5882 1.38858 13.4569 1.15334 13.2228C0.918097 12.9887 0.785259 12.6708 0.783936 12.3389V2.28994C0.78473 1.95771 0.917336 1.63937 1.15264 1.40481C1.38794 1.17026 1.7067 1.03868 2.03894 1.03894H3.26594C3.49049 1.03866 3.71101 1.09864 3.90449 1.21262C4.09797 1.3266 4.25733 1.4904 4.36594 1.68694L4.57794 2.07194C4.63472 2.1744 4.7179 2.25978 4.81884 2.31922C4.91978 2.37866 5.0348 2.40998 5.15194 2.40994H13.9609C14.2932 2.40968 14.6119 2.54126 14.8472 2.77581C15.0825 3.01037 15.2151 3.32871 15.2159 3.66094V12.3389C15.2151 12.6712 15.0825 12.9895 14.8472 13.2241C14.6119 13.4586 14.2932 13.5902 13.9609 13.5899L2.03894 13.5879Z" fill="#222222" stroke="#222222" stroke-width="0.6" stroke-miterlimit="10"/>
</svg>
