<svg width="23" height="26" viewBox="0 0 23 26" fill="none" xmlns="http://www.w3.org/2000/svg">
<path d="M7.63194 22.55C6.95894 22.46 6.25094 22.35 5.48394 22.218L1.36094 21.5C1.28209 21.4862 1.20856 21.451 1.14836 21.3982C1.08816 21.3455 1.0436 21.2772 1.01956 21.2008C0.995522 21.1245 0.992916 21.043 1.01203 20.9652C1.03114 20.8875 1.07124 20.8165 1.12794 20.76C2.072 19.8359 2.81734 18.7286 3.31825 17.5062C3.81916 16.2838 4.06509 14.9719 4.04094 13.651V9.72701C4.08531 8.50457 4.46854 7.31851 5.14785 6.30122C5.82716 5.28393 6.77582 4.47545 7.88794 3.96601C8.32838 3.76116 8.78534 3.5939 9.25394 3.46601V3.18201C9.25394 2.60596 9.48278 2.0535 9.89011 1.64617C10.2974 1.23884 10.8499 1.01001 11.4259 1.01001C12.002 1.01001 12.5544 1.23884 12.9618 1.64617C13.3691 2.0535 13.5979 2.60596 13.5979 3.18201V3.43201C14.119 3.56156 14.6268 3.73933 15.1149 3.96301C16.2199 4.4688 17.1565 5.28103 17.8136 6.30326C18.4707 7.32549 18.8206 8.5148 18.8219 9.73001V13.654C18.82 14.9841 19.0894 16.3007 19.6139 17.523C20.1383 18.7454 20.9067 19.8479 21.8719 20.763C21.9286 20.8195 21.9687 20.8905 21.9879 20.9682C22.007 21.046 22.0044 21.1275 21.9803 21.2038C21.9563 21.2802 21.9117 21.3485 21.8515 21.4012C21.7913 21.454 21.7178 21.4892 21.6389 21.503L17.5169 22.218C16.7529 22.351 16.0489 22.459 15.3789 22.549C15.0223 23.2764 14.471 23.8905 13.7862 24.3232C13.1014 24.756 12.3099 24.9902 11.4999 25C10.692 24.9881 9.90305 24.7529 9.22041 24.3205C8.53777 23.8881 7.98802 23.2754 7.63194 22.55Z" fill="#222222" stroke="#222222" stroke-width="0.2" stroke-miterlimit="10"/>
<path d="M14.723 5.59999C13.7897 5.20085 12.7851 4.99506 11.77 4.99506C10.7549 4.99506 9.75033 5.20085 8.817 5.59999C8.02819 5.93136 7.34703 6.47548 6.84959 7.17159C6.35214 7.86769 6.05799 8.68838 6 9.54199C6.00078 9.60301 6.01359 9.66328 6.0377 9.71934C6.06181 9.7754 6.09674 9.82616 6.14049 9.8687C6.18424 9.91125 6.23595 9.94474 6.29267 9.96727C6.34938 9.9898 6.40998 10.0009 6.471 9.99999C6.59366 10.0024 6.7123 9.95627 6.80108 9.87161C6.88986 9.78694 6.94159 9.67063 6.945 9.54799C6.9987 8.86977 7.23911 8.21965 7.63959 7.66966C8.04008 7.11968 8.58501 6.6913 9.214 6.43199C10.0224 6.08641 10.8924 5.90824 11.7715 5.90824C12.6506 5.90824 13.5206 6.08641 14.329 6.43199C14.4424 6.48278 14.571 6.48783 14.688 6.4461C14.805 6.40436 14.9014 6.31906 14.957 6.20799C14.9833 6.15298 14.9982 6.09317 15.0006 6.03222C15.003 5.97128 14.993 5.91048 14.9711 5.85355C14.9492 5.79663 14.9158 5.74478 14.8732 5.70118C14.8305 5.65758 14.7794 5.62314 14.723 5.59999Z" fill="#222222" stroke="#222222" stroke-width="0.2" stroke-miterlimit="10"/>
<path d="M18.5 11C20.433 11 22 9.433 22 7.5C22 5.567 20.433 4 18.5 4C16.567 4 15 5.567 15 7.5C15 9.433 16.567 11 18.5 11Z" fill="#F03737"/>
<path d="M18.5 11.25C20.5711 11.25 22.25 9.57107 22.25 7.5C22.25 5.42893 20.5711 3.75 18.5 3.75C16.4289 3.75 14.75 5.42893 14.75 7.5C14.75 9.57107 16.4289 11.25 18.5 11.25Z" stroke="white" stroke-width="0.5" stroke-miterlimit="10"/>
</svg>
