<svg width="20" height="11" viewBox="0 0 20 11" fill="none" xmlns="http://www.w3.org/2000/svg">
<path d="M10.429 7.65298L3.24597 0.46898C2.98929 0.225074 2.64743 0.091157 2.29338 0.0958138C1.93932 0.100471 1.60111 0.243331 1.35093 0.493903C1.10075 0.744475 0.958418 1.08291 0.954315 1.43697C0.950212 1.79103 1.08466 2.13268 1.32897 2.38898L9.46897 10.529C9.72345 10.7834 10.0686 10.9264 10.4285 10.9264C10.7883 10.9264 11.1335 10.7834 11.388 10.529L19.529 2.38898C19.7794 2.13368 19.919 1.78981 19.9173 1.43217C19.9156 1.07452 19.7727 0.732012 19.5198 0.479115C19.2669 0.226217 18.9244 0.0833855 18.5668 0.0816746C18.2091 0.0799637 17.8653 0.219514 17.61 0.46998L10.429 7.65298Z" fill="#1273EB"/>
</svg>
