<svg width="15" height="15" viewBox="0 0 15 15" fill="none" xmlns="http://www.w3.org/2000/svg">
<path d="M13.7814 7.11385L11.6927 9.20061C11.5362 9.35711 11.3239 9.44503 11.1025 9.44503C10.8811 9.44503 10.6688 9.35711 10.5123 9.20061C10.3558 9.04412 10.2678 8.83186 10.2678 8.61055C10.2678 8.38923 10.3558 8.17697 10.5123 8.02048L12.6009 5.93302C13.0698 5.46418 13.3332 4.82832 13.3331 4.16534C13.333 3.50236 13.0695 2.86656 12.6006 2.39781C12.1316 1.92906 11.4956 1.66575 10.8325 1.66582C10.1694 1.66588 9.53343 1.92931 9.06457 2.39816L6.97871 4.487C6.9012 4.56449 6.80919 4.62596 6.70792 4.6679C6.60665 4.70983 6.49812 4.73142 6.3885 4.73142C6.16713 4.73142 5.95483 4.6435 5.7983 4.487C5.72079 4.40951 5.65931 4.31752 5.61736 4.21628C5.57542 4.11503 5.55383 4.00652 5.55383 3.89693C5.55383 3.67561 5.64177 3.46336 5.7983 3.30686L7.88624 1.2201C8.66779 0.438819 9.72778 -6.50865e-05 10.833 7.23983e-09C11.3802 3.22384e-05 11.9221 0.107828 12.4277 0.317233C12.9333 0.526639 13.3927 0.833552 13.7796 1.22045C14.1666 1.60735 14.4735 2.06665 14.6829 2.57214C14.8923 3.07763 15 3.6194 15 4.16653C15 4.71365 14.8921 5.25541 14.6827 5.76088C14.4732 6.26634 14.1663 6.72561 13.7793 7.11246L13.7814 7.11385ZM8.02303 10.5154L5.93509 12.6036C5.70288 12.8357 5.42723 13.0198 5.12386 13.1454C4.82049 13.271 4.49535 13.3356 4.167 13.3356C3.83865 13.3355 3.51352 13.2708 3.21018 13.1452C2.90683 13.0195 2.63122 12.8354 2.39906 12.6032C1.9302 12.1344 1.66683 11.4985 1.6669 10.8356C1.66696 10.1726 1.93046 9.53677 2.39941 9.06802L4.48665 6.98057C4.64318 6.82407 4.73112 6.61182 4.73112 6.3905C4.73112 6.16918 4.64318 5.95692 4.48665 5.80043C4.33012 5.64393 4.11782 5.55601 3.89645 5.55601C3.67508 5.55601 3.46277 5.64393 3.30624 5.80043L1.22038 7.88788C0.43892 8.66926 -6.51016e-05 9.729 7.24151e-09 10.834C3.22459e-05 11.3811 0.107853 11.9228 0.317307 12.4283C0.52676 12.9338 0.833745 13.393 1.22073 13.7799C1.60772 14.1667 2.06713 14.4736 2.57274 14.683C3.07834 14.8923 3.62024 15 4.16749 15C5.27272 14.9999 6.33264 14.5609 7.11411 13.7795L9.20135 11.6921C9.35789 11.5356 9.44583 11.3233 9.44583 11.102C9.44583 10.8807 9.35789 10.6685 9.20135 10.512C9.04482 10.3555 8.83252 10.2675 8.61115 10.2675C8.38978 10.2675 8.17748 10.3555 8.02094 10.512L8.02303 10.5154Z" fill="#6DD400"/>
</svg>
