<svg width="17" height="17" viewBox="0 0 17 17" fill="none" xmlns="http://www.w3.org/2000/svg">
<path d="M15.1 16.3841C15.1 14.5509 14.3718 12.7928 13.0755 11.4965C11.7793 10.2003 10.0212 9.47205 8.188 9.47205C6.35482 9.47205 4.59673 10.2003 3.30048 11.4965C2.00423 12.7928 1.276 14.5509 1.276 16.3841H0C0.000469494 14.6803 0.531597 13.0191 1.51958 11.6311C2.50757 10.2431 3.90336 9.19733 5.513 8.63905C4.67975 8.06699 4.05142 7.2433 3.71992 6.28848C3.38842 5.33366 3.37115 4.29782 3.67063 3.33248C3.97012 2.36715 4.57064 1.52297 5.38435 0.923438C6.19807 0.323908 7.18227 0.000488281 8.193 0.000488281C9.20373 0.000488281 10.1879 0.323908 11.0016 0.923438C11.8154 1.52297 12.4159 2.36715 12.7154 3.33248C13.0149 4.29782 12.9976 5.33366 12.6661 6.28848C12.3346 7.2433 11.7062 8.06699 10.873 8.63905C12.4825 9.1975 13.878 10.2434 14.8658 11.6313C15.8536 13.0193 16.3846 14.6805 16.385 16.3841H15.1Z" fill="#222222"/>
</svg>
