<svg width="156" height="131" viewBox="0 0 156 131" fill="none" xmlns="http://www.w3.org/2000/svg">
<g id="Frame" clip-path="url(#clip0_1876_5882)">
<g id="Group">
<g id="OBJECTS">
<path id="Vector" d="M156 122.967H0V124.046H156V122.967Z" fill="black"/>
<path id="Vector_2" d="M92.5051 1.4096V4.5536H89.6894V1.4096C89.6887 1.22386 89.7248 1.03982 89.7956 0.868146C89.8665 0.696473 89.9706 0.540572 90.1021 0.409474C90.2335 0.278377 90.3896 0.174686 90.5613 0.104406C90.733 0.0341252 90.917 -0.00134829 91.1025 3.91825e-05C91.475 0.00142555 91.8317 0.150546 92.0946 0.414739C92.3575 0.678933 92.5051 1.03667 92.5051 1.4096Z" fill="#D35A24"/>
<path id="Vector_3" d="M91.7986 1.57203C91.7986 1.71091 91.7574 1.84666 91.6804 1.96213C91.6033 2.0776 91.4938 2.16759 91.3656 2.22074C91.2375 2.27388 91.0965 2.28779 90.9604 2.2607C90.8244 2.23361 90.6994 2.16673 90.6014 2.06853C90.5033 1.97034 90.4365 1.84522 90.4094 1.70901C90.3823 1.57281 90.3963 1.43163 90.4493 1.30333C90.5024 1.17502 90.5923 1.06536 90.7076 0.988208C90.823 0.911054 90.9585 0.869873 91.0973 0.869873C91.2833 0.869873 91.4616 0.943847 91.5931 1.07553C91.7247 1.20721 91.7986 1.38581 91.7986 1.57203Z" fill="#F6921E"/>
<path id="Vector_4" d="M92.5051 2.75623H89.6894V4.56927H92.5051V2.75623Z" fill="black"/>
<path id="Vector_5" d="M109.122 1.40957V4.55357H106.306V1.40957C106.306 1.03573 106.455 0.677203 106.719 0.412859C106.983 0.148515 107.341 9.81358e-06 107.714 9.81358e-06C107.899 -0.000682905 108.083 0.035304 108.254 0.105896C108.425 0.176487 108.58 0.280288 108.711 0.411316C108.842 0.542344 108.946 0.698008 109.016 0.869336C109.087 1.04066 109.123 1.22427 109.122 1.40957Z" fill="#D35A24"/>
<path id="Vector_6" d="M108.415 1.57203C108.415 1.71091 108.374 1.84666 108.297 1.96213C108.22 2.0776 108.111 2.16759 107.983 2.22074C107.854 2.27388 107.713 2.28779 107.577 2.2607C107.441 2.23361 107.316 2.16673 107.218 2.06853C107.12 1.97034 107.053 1.84522 107.026 1.70901C106.999 1.57281 107.013 1.43163 107.066 1.30333C107.119 1.17502 107.209 1.06536 107.325 0.988208C107.44 0.911054 107.575 0.869873 107.714 0.869873C107.9 0.869873 108.079 0.943847 108.21 1.07553C108.342 1.20721 108.415 1.38581 108.415 1.57203Z" fill="#F6921E"/>
<path id="Vector_7" d="M109.122 2.75623H106.306V4.56927H109.122V2.75623Z" fill="black"/>
<path id="Vector_8" d="M113.309 3.28552H85.4972V43.4868H113.309V3.28552Z" fill="#17CBEB"/>
<path id="Vector_9" d="M112.226 4.37537H86.5911V42.3968H112.226V4.37537Z" fill="#17CBEB"/>
<path id="Vector_10" d="M112.22 4.37537V6.26177L86.5858 5.33429V4.37537H112.22Z" fill="black"/>
<path id="Vector_11" d="M91.3171 7.2417H87.3081V22.7521H91.3171V7.2417Z" fill="#FBC222"/>
<path id="Vector_12" d="M91.3171 11.7533H87.3081V18.2352H91.3171V11.7533Z" fill="#271977"/>
<path id="Vector_13" d="M90.4116 8.1167H88.203V8.93414H90.4116V8.1167Z" fill="#271977"/>
<path id="Vector_14" d="M98.3616 9.39014H94.9126V22.7469H98.3616V9.39014Z" fill="#39B597"/>
<path id="Vector_15" d="M98.3616 13.2782H94.9126V18.8588H98.3616V13.2782Z" fill="white"/>
<path id="Vector_16" d="M97.587 10.1447H95.6872V10.8468H97.587V10.1447Z" fill="white"/>
<path id="Vector_17" d="M94.7189 8.1167H91.3118V22.7468H94.7189V8.1167Z" fill="#462ABC"/>
<path id="Vector_18" d="M93.9601 11.9471H92.076V18.9163H93.9601V11.9471Z" fill="#FBC222"/>
<path id="Vector_19" d="M102.193 6.7229H98.7855V22.7468H102.193V6.7229Z" fill="white"/>
<path id="Vector_20" d="M101.429 10.9202H99.5444V18.5496H101.429V10.9202Z" fill="#EC1C24"/>
<path id="Vector_21" d="M110.478 11.9524H103.642V22.752H110.478V11.9524Z" fill="#39B597"/>
<path id="Vector_22" d="M110.478 17.6273V19.87L103.642 19.4613V17.6273H110.478Z" fill="black"/>
<path id="Vector_23" d="M110.478 11.9471V14.2108L103.642 13.5925V11.9471H110.478Z" fill="black"/>
<path id="Vector_24" d="M110.478 15.72H103.642V19.2937H110.478V15.72Z" fill="#FBC222"/>
<path id="Vector_25" d="M110.724 11.2397H103.402V13.2781H110.724V11.2397Z" fill="#39B597"/>
<path id="Vector_26" d="M112.22 23.3861V25.2725L86.5858 24.345V23.3861H112.22Z" fill="black"/>
<path id="Vector_27" d="M112.226 24.0831V22.6997H86.5911V24.0831H112.226Z" fill="#F6921E"/>
<path id="Vector_28" d="M123.792 1.40957V4.55357H120.982V1.40957C120.981 1.22471 121.017 1.04154 121.087 0.870551C121.157 0.699566 121.26 0.544133 121.39 0.413175C121.521 0.282216 121.676 0.178308 121.846 0.107407C122.017 0.0365057 122.2 8.52668e-06 122.384 9.81358e-06C122.569 -0.000682905 122.753 0.035304 122.924 0.105896C123.095 0.176487 123.25 0.280288 123.381 0.411316C123.512 0.542344 123.616 0.698008 123.686 0.869336C123.757 1.04066 123.793 1.22427 123.792 1.40957Z" fill="#271977"/>
<path id="Vector_29" d="M123.091 1.57205C123.092 1.7124 123.051 1.84989 122.974 1.96702C122.897 2.08415 122.786 2.17563 122.657 2.22982C122.528 2.28401 122.385 2.29846 122.248 2.27133C122.11 2.2442 121.984 2.17672 121.885 2.07748C121.785 1.97823 121.718 1.8517 121.691 1.714C121.664 1.57629 121.678 1.43362 121.732 1.30415C121.787 1.17468 121.878 1.06425 121.995 0.986924C122.112 0.909594 122.249 0.868856 122.389 0.869892C122.481 0.869892 122.573 0.888052 122.658 0.923339C122.743 0.958626 122.82 1.01035 122.885 1.07555C122.95 1.14075 123.002 1.21816 123.037 1.30335C123.073 1.38854 123.091 1.47984 123.091 1.57205Z" fill="#462ABC"/>
<path id="Vector_30" d="M123.797 2.75623H120.982V4.56927H123.797V2.75623Z" fill="black"/>
<path id="Vector_31" d="M140.414 1.40957V4.55357H137.598V1.40957C137.598 1.22427 137.634 1.04066 137.704 0.869336C137.775 0.698008 137.878 0.542344 138.009 0.411316C138.14 0.280288 138.296 0.176487 138.467 0.105896C138.638 0.035304 138.821 -0.000682905 139.006 9.81358e-06C139.191 -0.000682905 139.375 0.035304 139.546 0.105896C139.717 0.176487 139.872 0.280288 140.003 0.411316C140.134 0.542344 140.238 0.698008 140.308 0.869336C140.379 1.04066 140.415 1.22427 140.414 1.40957Z" fill="#271977"/>
<path id="Vector_32" d="M139.708 1.57203C139.708 1.71091 139.666 1.84666 139.589 1.96213C139.512 2.0776 139.403 2.16759 139.275 2.22074C139.146 2.27388 139.005 2.28779 138.869 2.2607C138.733 2.23361 138.608 2.16673 138.51 2.06853C138.412 1.97034 138.345 1.84522 138.318 1.70901C138.291 1.57281 138.305 1.43163 138.358 1.30333C138.411 1.17502 138.501 1.06536 138.617 0.988208C138.732 0.911054 138.868 0.869873 139.006 0.869873C139.192 0.869873 139.371 0.943847 139.502 1.07553C139.634 1.20721 139.708 1.38581 139.708 1.57203Z" fill="#462ABC"/>
<path id="Vector_33" d="M140.414 2.75623H137.598V4.56927H140.414V2.75623Z" fill="black"/>
<path id="Vector_34" d="M144.601 3.28552H116.789V43.4868H144.601V3.28552Z" fill="#1273EB"/>
<path id="Vector_35" d="M143.512 4.37537H117.878V42.3968H143.512V4.37537Z" fill="#1273EB"/>
<path id="Vector_36" d="M136.976 13.8284H119.375V22.8726H136.976V13.8284Z" fill="#FBC222"/>
<path id="Vector_37" d="M136.976 18.5863V20.4622L119.375 20.1216V18.5863H136.976Z" fill="black"/>
<path id="Vector_38" d="M136.976 13.8284V15.72L119.375 15.2065V13.8284H136.976Z" fill="black"/>
<path id="Vector_39" d="M136.976 16.988H119.375V19.9801H136.976V16.988Z" fill="white"/>
<path id="Vector_40" d="M137.598 13.231H118.752V14.9392H137.598V13.231Z" fill="#FBC222"/>
<path id="Vector_41" d="M143.512 4.37537V6.26177L117.878 5.33429V4.37537H143.512Z" fill="black"/>
<path id="Vector_42" d="M143.512 23.3861V25.2725L117.878 24.345V23.3861H143.512Z" fill="black"/>
<path id="Vector_43" d="M143.512 24.0778V22.6945H117.878V24.0778H143.512Z" fill="#462ABC"/>
<path id="Vector_44" d="M131.957 26.8865H127.948V42.3969H131.957V26.8865Z" fill="#39B597"/>
<path id="Vector_45" d="M131.957 31.4033H127.948V37.8852H131.957V31.4033Z" fill="black"/>
<path id="Vector_46" d="M131.056 27.7667H128.848V28.5842H131.056V27.7667Z" fill="black"/>
<path id="Vector_47" d="M140.037 28.698L135.087 41.1013L138.29 42.3826L143.239 29.9793L140.037 28.698Z" fill="#462ABC"/>
<path id="Vector_48" d="M138.596 32.3085L136.528 37.4907L139.73 38.772L141.799 33.5898L138.596 32.3085Z" fill="#FBC222"/>
<path id="Vector_49" d="M142.248 30.4303L140.484 29.7242L140.224 30.3762L141.988 31.0823L142.248 30.4303Z" fill="white"/>
<path id="Vector_50" d="M135.364 27.7667H131.957V42.3968H135.364V27.7667Z" fill="#FBC222"/>
<path id="Vector_51" d="M134.6 31.5972H132.715V38.5664H134.6V31.5972Z" fill="#462ABC"/>
<path id="Vector_52" d="M127.393 28.5161H118.6V42.3969H127.393V28.5161Z" fill="white"/>
<path id="Vector_53" d="M127.393 35.8154V38.6974L118.6 38.1682V35.8154H127.393Z" fill="black"/>
<path id="Vector_54" d="M127.393 28.5161V31.4191L118.6 30.6226V28.5161H127.393Z" fill="black"/>
<path id="Vector_55" d="M127.393 33.363H118.6V37.9585H127.393V33.363Z" fill="#EC1C24"/>
<path id="Vector_56" d="M127.707 27.5991H118.291V30.2191H127.707V27.5991Z" fill="white"/>
<path id="Vector_57" d="M109.86 66.4799H69.231L75.4329 38.2206H116.062L109.86 66.4799Z" fill="black"/>
<path id="Vector_58" d="M70.0474 65.2695L75.7155 39.431H113.864L108.196 65.2695H70.0474Z" fill="#1273EB"/>
<path id="Vector_59" d="M102.753 40.2275L100.319 51.3154H110.399L112.833 40.2275H102.753Z" fill="#FBC222"/>
<path id="Vector_60" d="M94.766 42.5698C94.6888 42.4374 94.5811 42.3256 94.4517 42.2435C94.3224 42.1614 94.1754 42.1116 94.0229 42.0982C93.7088 42.0982 93.6042 42.0982 93.3896 41.81C93.315 41.7088 93.2169 41.6274 93.1038 41.5726C92.9908 41.5178 92.8661 41.4914 92.7406 41.4956C92.6673 41.4956 92.5993 41.5375 92.5313 41.5428C92.3585 41.5428 92.212 41.4432 92.0498 41.3751C91.9157 41.3158 91.7685 41.2924 91.6226 41.3071C91.4768 41.3218 91.3372 41.3741 91.2176 41.4589C91.1182 41.527 91.0292 41.6109 90.9298 41.6842C90.699 41.8185 90.4553 41.9291 90.2023 42.0144C90.0732 42.0609 89.9555 42.1345 89.8571 42.2303C89.7587 42.3261 89.6819 42.4419 89.6318 42.5698C89.5795 42.7322 89.59 42.9104 89.5481 43.0938C89.4591 43.4554 89.1346 43.7174 89.0875 44.0894C89.0877 44.2767 89.0982 44.4639 89.1189 44.6501C89.1189 45.064 88.9096 45.5199 89.1189 45.8658C89.2602 46.112 89.569 46.2011 89.6894 46.4631C89.7365 46.5627 89.7522 46.6832 89.7993 46.788C89.8872 46.9227 90.0161 47.0255 90.1669 47.0812C90.3177 47.1369 90.4824 47.1425 90.6367 47.0972C90.8524 47.0659 91.0646 47.0132 91.27 46.94C91.3797 46.8842 91.5047 46.8658 91.6258 46.8876C91.7933 46.9347 91.8875 47.1338 92.0445 47.2177C92.2015 47.3015 92.4999 47.2177 92.7197 47.2701C92.9395 47.3225 93.1593 47.6893 93.4315 47.6893C93.6015 47.6603 93.7546 47.5688 93.8606 47.4325L94.4834 46.8194C94.5826 46.7299 94.6673 46.6257 94.7346 46.5103C94.7946 46.378 94.8385 46.239 94.8655 46.0963C95.0623 45.6759 95.1522 45.2133 95.1272 44.7496C95.0567 44.5604 94.9763 44.375 94.8864 44.1942C94.8079 43.978 94.7863 43.7452 94.8236 43.5182C94.8603 43.3825 94.8866 43.2441 94.9021 43.1043C94.9147 42.9162 94.8671 42.7289 94.766 42.5698Z" fill="#752B31"/>
<path id="Vector_61" d="M86.0154 54.7841L85.4083 56.2094C85.3454 56.3561 85.2826 56.5029 85.2146 56.6443C83.901 59.4425 81.7551 61.0355 80.4258 59.6259C79.2691 58.405 77.6519 54.3859 77.1233 53.0078C77.0605 52.9344 76.9977 52.8663 76.9402 52.7929L74.8048 50.2044C74.6845 50.0577 74.3181 49.4446 74.5013 49.2664C74.7996 48.9782 75.9144 50.3144 76.0714 50.524C75.705 49.9371 75.3387 49.345 74.9776 48.7529C74.8714 48.6081 74.7982 48.4417 74.763 48.2656C74.7478 48.1767 74.7603 48.0854 74.7986 48.0039C74.837 47.9223 74.8995 47.8546 74.9776 47.8097C75.2392 47.6944 75.5009 47.9564 75.6684 48.1922C76.0766 48.7686 76.4901 49.3398 76.9035 49.9162C76.6 49.2686 76.3395 48.6017 76.1237 47.9197C76.0662 47.7049 75.8359 47.0604 75.9929 46.8717C76.3331 46.4578 76.7884 47.2962 76.8879 47.5372L77.8456 49.8061C77.6871 48.9715 77.6013 48.1247 77.5891 47.2752C77.5891 47.0342 77.6258 46.7512 77.8508 46.6674C78.1596 46.5626 78.3742 46.9713 78.4318 47.2909C78.6306 48.3599 78.7789 49.4324 78.8766 50.5083C79.0406 50.0311 79.2947 49.5899 79.6251 49.2088C79.6884 49.1179 79.7838 49.0542 79.892 49.0306C80.1694 48.9992 80.2479 49.4131 80.1798 49.6856C80.0123 50.4087 79.6564 51.0795 79.489 51.7816C79.4914 51.7973 79.4914 51.8132 79.489 51.8288L81.7238 56.4976L82.2471 55.5073L82.7391 54.5641L86.0154 54.7841Z" fill="#F68080"/>
<path id="Vector_62" d="M86.0154 54.7842L85.4083 56.2095C85.3455 56.3562 85.2827 56.5029 85.2146 56.6444C84.1602 56.471 83.1513 56.0879 82.2471 55.5178L82.7391 54.5746L86.0154 54.7842Z" fill="black"/>
<path id="Vector_63" d="M99.5653 65.2694H96.4251C96.4251 65.2694 96.87 58.819 96.5978 57.0845C96.5403 56.7282 96.4775 56.4138 96.4094 56.1361C96.3068 55.5908 96.1308 55.062 95.8861 54.5641L99.3926 54.9938C99.3926 54.9938 99.5025 55.6959 99.6438 56.723C99.8898 58.688 99.5392 63.5297 99.5653 65.2694Z" fill="#F68080"/>
<path id="Vector_64" d="M99.6124 56.7334C98.5064 56.8981 97.3772 56.6878 96.4042 56.1361C96.3016 55.5908 96.1255 55.062 95.8808 54.5641L99.3874 54.9938C99.3874 54.9938 99.4764 55.7064 99.6124 56.7334Z" fill="black"/>
<path id="Vector_65" d="M100.324 55.7064C99.5154 55.9171 98.6843 56.0296 97.8487 56.0418C97.2952 56.0663 96.7445 55.9509 96.2472 55.7064C94.9283 54.9466 93.8554 49.0516 93.8554 49.0516C93.8554 49.0516 94.1066 49.1145 94.5201 49.2612C95.9908 49.78 99.445 51.4882 100.324 55.7064Z" fill="white"/>
<g id="Vector_66" style="mix-blend-mode:multiply" opacity="0.3">
<path d="M97.8487 56.068C97.2952 56.0925 96.7445 55.9772 96.2472 55.7327C94.9283 54.9729 93.8554 49.0779 93.8554 49.0779C93.8554 49.0779 94.1066 49.1408 94.5201 49.2875C95.6127 49.9237 96.4577 50.9119 96.9171 52.0909C97.4461 53.3556 97.7609 54.6997 97.8487 56.068Z" fill="#368CAD"/>
</g>
<path id="Vector_67" d="M81.7342 55.02C82.5033 55.3431 83.3079 55.5735 84.1313 55.7065C84.6759 55.8068 85.2368 55.7708 85.7642 55.6017C87.1772 55.0358 89.0823 49.3608 89.0823 49.3608C88.8519 49.3844 88.623 49.4211 88.3967 49.4709C86.8632 49.78 83.1996 50.959 81.7342 55.02Z" fill="white"/>
<g id="Vector_68" style="mix-blend-mode:multiply" opacity="0.3">
<path d="M84.1312 55.696C84.6758 55.7963 85.2368 55.7603 85.7641 55.5912C87.1772 55.0253 89.0823 49.3503 89.0823 49.3503C88.8518 49.3739 88.6229 49.4106 88.3967 49.4604C87.2253 49.9334 86.2491 50.7906 85.628 51.8917C84.9205 53.0673 84.4146 54.3531 84.1312 55.696Z" fill="#368CAD"/>
</g>
<path id="Vector_69" d="M90.6262 48.8839C89.6213 49.0745 88.6764 49.5025 87.8698 50.1322C87.0633 50.762 86.4186 51.5754 85.9892 52.5048C84.4191 55.7483 83.0269 65.2694 83.0269 65.2694H95.7814C95.7814 65.2694 97.4352 54.4855 96.4775 51.965C96.2053 51.2377 95.7769 50.5792 95.2225 50.0359C94.6681 49.4926 94.0013 49.0779 93.2692 48.821L90.6262 48.8839Z" fill="white"/>
<path id="Vector_70" d="M89.9772 46.2325C89.8801 46.2371 89.7832 46.2207 89.6929 46.1845C89.6026 46.1484 89.5211 46.0933 89.4539 46.0229C89.1346 45.7347 88.9305 45.2212 89.1451 45.0273C89.2008 44.9777 89.2704 44.9466 89.3444 44.9381C89.4184 44.9297 89.4932 44.9444 89.5586 44.9802C89.6724 45.0362 89.7739 45.1146 89.8569 45.2107L89.9772 46.2325Z" fill="#F68080"/>
<path id="Vector_71" d="M89.9772 46.2326C89.8801 46.2371 89.7831 46.2207 89.6929 46.1846C89.6026 46.1484 89.5211 46.0933 89.4539 46.023C89.456 45.6711 89.491 45.3203 89.5585 44.975C89.6724 45.031 89.7738 45.1095 89.8569 45.2055L89.9772 46.2326Z" fill="black"/>
<path id="Vector_72" d="M94.1904 46.3792C94.2848 46.3882 94.3801 46.3775 94.4702 46.3477C94.5603 46.318 94.6432 46.2698 94.7137 46.2063C95.0539 45.9391 95.2947 45.4413 95.0905 45.2317C95.0391 45.1776 94.9718 45.1413 94.8984 45.1281C94.825 45.1149 94.7493 45.1255 94.6823 45.1583C94.5649 45.2068 94.4581 45.278 94.3683 45.3679L94.1904 46.3792Z" fill="#F68080"/>
<path id="Vector_73" d="M94.1904 46.3792C94.2848 46.3882 94.3801 46.3775 94.4702 46.3478C94.5603 46.318 94.6432 46.2698 94.7137 46.2063C94.7342 45.8567 94.7237 45.506 94.6823 45.1583C94.5649 45.2068 94.4581 45.278 94.3683 45.3679L94.1904 46.3792Z" fill="black"/>
<path id="Vector_74" d="M93.196 49.6124C91.7148 50.7023 90.0558 49.5076 90.0558 49.5076L90.3646 48.0037L90.5216 47.2386L92.9866 47.3277L93.1122 48.8526L93.196 49.6124Z" fill="#F68080"/>
<path id="Vector_75" d="M93.1541 48.8526C92.6618 48.9296 92.1584 48.8932 91.6823 48.7461C91.2061 48.599 90.7698 48.3451 90.4064 48.0037L90.5634 47.2386L93.0285 47.3277L93.1541 48.8526Z" fill="black"/>
<path id="Vector_76" d="M94.4939 45.6718C94.3317 47.1862 93.1332 48.2918 91.8143 48.1556C90.4954 48.0194 89.569 46.6674 89.7208 45.1531C89.8726 43.6387 91.0868 42.5331 92.4004 42.6693C93.7141 42.8056 94.6561 44.1575 94.4939 45.6718Z" fill="#F68080"/>
<path id="Vector_77" d="M90.5791 45.3574C90.7204 45.1583 90.7885 44.8701 91.0188 44.7862C91.249 44.7024 91.5421 44.8858 91.7724 44.8386C92.0027 44.7915 92.212 44.4299 92.4894 44.3146C92.6457 44.28 92.8058 44.2659 92.9657 44.2727C93.0808 44.2727 93.2012 44.1365 93.3163 44.2413C93.3763 44.3108 93.4193 44.3933 93.4419 44.4823C93.4658 44.5724 93.5241 44.6496 93.6042 44.6972C93.6517 44.7143 93.7008 44.7266 93.7507 44.7338C93.8347 44.7723 93.907 44.8323 93.9603 44.9078C94.0136 44.9832 94.046 45.0715 94.0543 45.1635C94.0675 45.2604 94.0921 45.3554 94.1276 45.4465C94.1456 45.4922 94.1755 45.5323 94.2141 45.5627C94.2527 45.5931 94.2987 45.6126 94.3474 45.6194C94.5201 45.6194 94.6143 45.4255 94.6457 45.2526C94.7263 44.781 94.6706 44.2961 94.4852 43.8551C94.2997 43.4142 93.9922 43.0354 93.5989 42.7636C93.2222 42.5296 92.7993 42.38 92.3594 42.3248C91.9195 42.2696 91.4729 42.3103 91.0502 42.444C90.8356 42.4967 90.636 42.5984 90.4671 42.7411C90.2983 42.8838 90.1646 43.0637 90.0767 43.2666C90.0474 43.4117 90.0108 43.5551 89.9668 43.6963C89.8516 43.9845 89.5481 44.1784 89.4434 44.4823C89.4172 44.5903 89.4066 44.7015 89.412 44.8124C89.412 45.0902 89.2759 45.4046 89.5743 45.5932C89.7422 45.681 89.936 45.7055 90.1204 45.6622C90.3049 45.6189 90.4676 45.5108 90.5791 45.3574Z" fill="#752B31"/>
<path id="Vector_78" d="M93.5257 56.0417H88.0879L88.4124 53.6261H93.8554L93.5257 56.0417Z" fill="#EC1C24"/>
<path id="Vector_79" d="M106.055 44.2047C105.867 44.278 105.772 44.3671 105.574 44.2675C105.363 44.177 105.184 44.0263 105.058 43.8343C104.932 43.6424 104.866 43.4176 104.867 43.1881C104.876 43.0336 104.91 42.8815 104.966 42.7375C105.05 42.4577 105.206 42.2048 105.418 42.0044C105.631 41.8039 105.892 41.6628 106.175 41.5952C106.306 41.5821 106.437 41.5821 106.568 41.5952C106.71 41.5915 106.852 41.6038 106.992 41.6318C107.271 41.7169 107.524 41.8731 107.725 42.0853C107.926 42.2975 108.068 42.5584 108.138 42.8423C108.199 43.01 108.23 43.1876 108.227 43.3663C108.223 43.5243 108.183 43.6793 108.11 43.8196C108.038 43.96 107.935 44.0822 107.808 44.1769C107.682 44.2717 107.536 44.3366 107.381 44.3668C107.226 44.397 107.066 44.3917 106.913 44.3514C106.626 44.2833 106.332 44.0946 106.055 44.2047Z" fill="black"/>
<path id="Vector_80" d="M102.695 51.3153L103.302 49.0045L103.517 48.1923L101.994 47.9093C101.994 47.9093 101.921 48.0927 101.811 48.4019C101.586 49.0097 101.203 50.1101 100.889 51.3153H102.695Z" fill="#F68080"/>
<path id="Vector_81" d="M103.517 48.208L103.302 49.0202C102.785 48.8727 102.285 48.6707 101.811 48.4176C101.921 48.1084 101.994 47.925 101.994 47.925L103.517 48.208Z" fill="black"/>
<path id="Vector_82" d="M108.661 49.1669C108.714 49.8821 108.714 50.6001 108.661 51.3153H110.132C110.174 50.5434 110.164 49.7696 110.101 48.9992C110.033 48.5066 109.98 48.166 109.98 48.166L108.295 47.9617C108.417 48.1983 108.507 48.4503 108.562 48.711C108.604 48.8472 108.635 48.9992 108.661 49.1669Z" fill="#F68080"/>
<path id="Vector_83" d="M110.111 48.9992C109.581 49.0799 109.038 48.9783 108.572 48.711C108.518 48.4503 108.428 48.1983 108.306 47.9617L109.991 48.166C109.991 48.166 110.043 48.5066 110.111 48.9992Z" fill="black"/>
<path id="Vector_84" d="M110.467 48.5067C110.079 48.606 109.68 48.6605 109.279 48.6691C109.013 48.6759 108.75 48.6203 108.51 48.5067C107.876 48.1399 107.363 45.3103 107.363 45.3103C107.472 45.3368 107.579 45.37 107.683 45.4099C108.373 45.6433 108.992 46.0508 109.48 46.5932C109.968 47.1356 110.308 47.7946 110.467 48.5067Z" fill="#39B597"/>
<g id="Vector_85" style="mix-blend-mode:multiply" opacity="0.5">
<path d="M109.263 48.6691C108.998 48.6759 108.734 48.6203 108.494 48.5067C107.861 48.1399 107.348 45.3103 107.348 45.3103C107.456 45.3368 107.563 45.37 107.667 45.4099C108.191 45.7161 108.597 46.1906 108.818 46.7565C109.072 47.3647 109.223 48.0112 109.263 48.6691Z" fill="#31A186"/>
</g>
<path id="Vector_86" d="M101.523 48.1713C101.894 48.3273 102.282 48.4382 102.679 48.5015C102.941 48.5487 103.211 48.5308 103.464 48.4491C104.14 48.1818 105.035 45.4518 105.035 45.4518C104.924 45.4633 104.814 45.4808 104.705 45.5042C103.991 45.6398 103.324 45.9561 102.767 46.423C102.21 46.8899 101.782 47.4918 101.523 48.1713Z" fill="#39B597"/>
<g id="Vector_87" style="mix-blend-mode:multiply" opacity="0.5">
<path d="M102.679 48.5015C102.941 48.5487 103.211 48.5308 103.464 48.4491C104.14 48.1818 105.035 45.4518 105.035 45.4518C104.924 45.4633 104.814 45.4808 104.705 45.5042C104.141 45.7322 103.671 46.1439 103.37 46.6727C103.041 47.24 102.807 47.8579 102.679 48.5015Z" fill="#31A186"/>
</g>
<path id="Vector_88" d="M108.51 51.3153C108.698 49.6961 108.892 47.4534 108.604 46.7093C108.474 46.3592 108.269 46.042 108.003 45.7803C107.737 45.5186 107.417 45.3187 107.065 45.1949L105.799 45.2264C105.316 45.3181 104.862 45.5238 104.474 45.8263C104.086 46.1289 103.776 46.5196 103.569 46.9661C103.045 48.3731 102.668 49.8306 102.444 51.3153H108.51Z" fill="#39B597"/>
<path id="Vector_89" d="M105.485 43.9532C105.44 43.9555 105.396 43.9477 105.355 43.9305C105.315 43.9132 105.278 43.8869 105.249 43.8536C105.092 43.7174 104.993 43.4659 105.097 43.3768C105.124 43.3529 105.157 43.3376 105.193 43.3329C105.228 43.3283 105.264 43.3344 105.296 43.3506C105.352 43.3775 105.4 43.417 105.438 43.4659L105.485 43.9532Z" fill="#F68080"/>
<path id="Vector_90" d="M105.485 43.9532C105.44 43.9554 105.396 43.9477 105.355 43.9304C105.315 43.9132 105.278 43.8869 105.249 43.8536C105.248 43.6778 105.263 43.5023 105.296 43.3296C105.352 43.3565 105.4 43.396 105.438 43.4449L105.485 43.9532Z" fill="black"/>
<path id="Vector_91" d="M107.51 44.0159C107.598 44.0203 107.684 43.9902 107.751 43.9321C107.913 43.8063 108.028 43.5653 107.934 43.4657C107.909 43.4395 107.876 43.4218 107.84 43.4152C107.805 43.4086 107.768 43.4135 107.735 43.4291C107.68 43.4518 107.63 43.4857 107.589 43.5286L107.51 44.0159Z" fill="#F68080"/>
<path id="Vector_92" d="M107.51 44.016C107.598 44.0204 107.684 43.9903 107.751 43.9322C107.769 43.758 107.769 43.5824 107.751 43.4082C107.696 43.431 107.646 43.4649 107.604 43.5078L107.51 44.016Z" fill="black"/>
<path id="Vector_93" d="M105.657 45.237C105.61 45.2108 105.312 45.3575 105.249 45.6824C105.186 46.0073 106.107 47.6264 106.107 47.6264C106.107 47.6264 107.217 46.2378 107.248 45.6719C107.28 45.106 106.479 45.2108 106.479 45.2108L105.657 45.237Z" fill="#F68080"/>
<path id="Vector_94" d="M107.039 45.588C106.813 45.7309 106.55 45.8023 106.283 45.793C106.016 45.7836 105.758 45.6939 105.542 45.5356L105.694 44.8177L105.767 44.4509L106.95 44.4928L107.008 45.2212L107.039 45.588Z" fill="#F68080"/>
<path id="Vector_95" d="M107.008 45.2107C106.772 45.2476 106.532 45.2304 106.304 45.1605C106.077 45.0906 105.868 44.9698 105.694 44.8072L105.767 44.4404L106.95 44.4824L107.008 45.2107Z" fill="black"/>
<path id="Vector_96" d="M107.657 43.6859C107.602 43.9022 107.487 44.0983 107.324 44.2508C107.162 44.4033 106.959 44.5058 106.74 44.546C106.52 44.5862 106.294 44.5626 106.088 44.4778C105.882 44.393 105.705 44.2506 105.577 44.0677C105.45 43.8848 105.377 43.6691 105.369 43.4462C105.36 43.2233 105.416 43.0027 105.529 42.8106C105.643 42.6185 105.809 42.463 106.008 42.3627C106.207 42.2624 106.43 42.2216 106.652 42.2449C106.975 42.3037 107.263 42.4882 107.451 42.7581C107.639 43.0281 107.713 43.3616 107.657 43.6859Z" fill="#F68080"/>
<path id="Vector_97" d="M106.804 42.7112C106.992 42.9264 107.246 43.0737 107.526 43.1304C107.575 43.1475 107.628 43.1493 107.678 43.1356C107.728 43.1218 107.773 43.0932 107.806 43.0534C107.84 43.0137 107.86 42.9647 107.865 42.9129C107.87 42.8612 107.86 42.8091 107.835 42.7636C107.727 42.5518 107.566 42.3713 107.369 42.2396C107.202 42.0989 107.01 41.9906 106.804 41.9199C106.58 41.8776 106.35 41.895 106.136 41.9704C105.922 42.0459 105.731 42.1767 105.584 42.3496C105.424 42.5282 105.305 42.739 105.233 42.9679C105.163 43.1339 105.152 43.3188 105.202 43.4919C105.301 43.7277 105.5 43.5863 105.678 43.5391C106.136 43.3976 106.532 43.1059 106.804 42.7112Z" fill="black"/>
<path id="Vector_98" d="M109.661 67.0982H56.0683L56.6178 65.1489H110.205L109.661 67.0982Z" fill="black"/>
<path id="Vector_99" d="M94.4468 38.776C94.4468 38.8361 94.429 38.8948 94.3956 38.9448C94.3623 38.9948 94.3149 39.0337 94.2594 39.0567C94.204 39.0798 94.1429 39.0858 94.084 39.0741C94.0251 39.0623 93.9711 39.0334 93.9286 38.9909C93.8862 38.9484 93.8572 38.8942 93.8455 38.8353C93.8338 38.7763 93.8398 38.7152 93.8628 38.6597C93.8858 38.6041 93.9247 38.5567 93.9746 38.5233C94.0245 38.4899 94.0832 38.472 94.1432 38.472C94.2237 38.472 94.3009 38.5041 94.3579 38.5611C94.4148 38.6181 94.4468 38.6954 94.4468 38.776Z" fill="#333333"/>
<path id="Vector_100" d="M101.774 65.7882H98.7907V66.4589H101.774V65.7882Z" fill="#333333"/>
<path id="Vector_101" d="M103.71 65.7882H102.58V66.4589H103.71V65.7882Z" fill="#333333"/>
<path id="Vector_102" d="M65.4889 67.0983H53.3049C54.1371 65.9874 57.1151 62.4871 61.5113 62.5552C61.7364 62.5552 61.9614 62.5552 62.1917 62.5919C66.5671 63.0215 65.9809 65.8616 65.4889 67.0983Z" fill="black"/>
<path id="Vector_103" d="M65.4889 67.0983H59.1771C59.758 64.3839 60.8676 63.1054 61.5375 62.5552C61.7625 62.5552 61.9876 62.5552 62.2179 62.5919C66.567 63.0215 65.9809 65.8616 65.4889 67.0983Z" fill="#333333"/>
<path id="Vector_104" d="M29.6645 92.0302L29.0259 94.865L28.1467 98.7531L20.8719 131H16.6483L23.9231 98.7531L24.7971 94.865L25.4409 92.0302H29.6645Z" fill="#999999"/>
<path id="Vector_105" d="M29.6644 92.0302L29.0259 94.865L28.1467 98.7531H23.9231L24.7971 94.865L25.4409 92.0302H29.6644Z" fill="black"/>
<path id="Vector_106" d="M55.2519 92.0302L55.8956 94.865L56.7696 98.7531L64.0444 131H68.268L60.9932 98.7531L60.1192 94.865L59.4807 92.0302H55.2519Z" fill="#999999"/>
<path id="Vector_107" d="M55.2519 92.0302L55.8956 94.865L56.7696 98.7531H60.9932L60.1192 94.865L59.4807 92.0302H55.2519Z" fill="black"/>
<path id="Vector_108" d="M66.5461 89.08V90.3167C66.5461 90.4791 66.5461 90.6363 66.5461 90.7935C66.4258 92.3772 65.7114 93.8567 64.5464 94.9346C63.3813 96.0126 61.852 96.6092 60.2657 96.6047H24.2894C23.3392 96.6044 22.4125 96.3082 21.6379 95.757C20.8633 95.2059 20.2792 94.4272 19.9664 93.5288L4.64747 49.4027C4.50101 48.987 4.44074 48.5457 4.47034 48.1059C4.49993 47.666 4.61878 47.2369 4.8196 46.8445C5.02042 46.4522 5.299 46.105 5.63835 45.8241C5.97769 45.5432 6.37067 45.3345 6.79327 45.2107C6.99653 45.1517 7.20517 45.1131 7.41608 45.0955C7.51196 45.0902 7.60805 45.0902 7.70393 45.0955C8.37997 45.0959 9.03889 45.3085 9.58805 45.7032C10.1372 46.098 10.549 46.6551 10.7656 47.2963L24.4569 87.6128C24.6013 88.0403 24.8759 88.4117 25.242 88.6749C25.6081 88.938 26.0473 89.0797 26.498 89.08H66.5461Z" fill="#666666"/>
<g id="Vector_109" style="mix-blend-mode:multiply" opacity="0.5">
<path d="M66.5461 89.0801V90.3167C66.5461 90.4791 66.5461 90.6363 66.5461 90.7935C66.2294 91.0174 65.893 91.2121 65.5412 91.3752C64.7198 91.7506 63.8274 91.9454 62.9244 91.9463H26.9325C25.9811 91.9452 25.0535 91.6481 24.2781 91.0962C23.5027 90.5442 22.9177 89.7646 22.6042 88.8652L7.42657 45.1112C7.52245 45.106 7.61856 45.106 7.71444 45.1112C8.39048 45.1117 9.04938 45.3242 9.59854 45.719C10.1477 46.1137 10.5595 46.6708 10.7761 47.312L24.4674 87.6286C24.6118 88.056 24.8863 88.4274 25.2525 88.6906C25.6186 88.9538 26.0578 89.0955 26.5085 89.0958L66.5461 89.0801Z" fill="#333333"/>
</g>
<path id="Vector_110" d="M44.1669 39.9655C44.0047 39.9078 44.0465 38.493 44.0465 38.493C44.0465 38.493 46.789 37.5498 50.7875 40.3165L49.5838 41.4379L44.1669 39.9655Z" fill="black"/>
<path id="Vector_111" d="M52.7083 35.8992C51.9595 37.2056 50.816 38.2403 49.4425 38.8546L49.1965 39.583L48.2282 42.444L44.1669 41.4432L45.1666 38.7603L45.7894 37.094C45.5603 36.0285 45.4549 34.9401 45.4753 33.8504C45.5748 32.1474 45.5224 31.9378 45.2555 30.895C44.9886 29.8523 46.7838 29.847 47.4327 32.4146C47.8483 31.1191 48.1426 29.7876 48.312 28.4375C48.3643 27.1065 49.0813 26.8236 49.3169 26.8655C49.5524 26.9074 50.1176 27.0279 50.2014 28.1964C50.2014 28.1964 50.3584 26.5825 51.1277 26.5825C51.8971 26.5825 52.0384 27.6305 51.9703 28.3589C51.9703 28.3589 52.4047 27.7091 52.8182 27.8349C53.2316 27.9606 53.5352 28.317 53.3939 29.3702C53.4651 29.3428 53.5415 29.3313 53.6177 29.3365C53.6938 29.3418 53.7679 29.3636 53.8347 29.4006C53.9015 29.4375 53.9595 29.4887 54.0045 29.5504C54.0495 29.6121 54.0804 29.683 54.0952 29.758C54.2941 30.2977 53.9068 33.7508 52.7083 35.8992Z" fill="#F68080"/>
<path id="Vector_112" d="M50.2014 28.1964C50.0994 29.5659 49.8431 30.9194 49.4373 32.2312" stroke="#231F20" stroke-width="0.35" stroke-linecap="round" stroke-linejoin="round"/>
<path id="Vector_113" d="M47.4327 32.4094L47.5897 33.3212C47.5897 33.3212 50.0234 32.771 51.3685 34.5107" stroke="#231F20" stroke-width="0.35" stroke-linecap="round" stroke-linejoin="round"/>
<path id="Vector_114" d="M51.9704 28.3536C51.8493 29.8253 51.5505 31.2769 51.0806 32.6766" stroke="#231F20" stroke-width="0.35" stroke-linecap="round" stroke-linejoin="round"/>
<path id="Vector_115" d="M53.4201 29.3807C53.4201 29.3807 53.3102 31.7545 52.5775 33.0487" stroke="#231F20" stroke-width="0.35" stroke-linecap="round" stroke-linejoin="round"/>
<path id="Vector_116" d="M49.1965 39.5829L48.2282 42.444L44.1669 41.4431L45.1666 38.7603C46.4652 39.2204 47.8215 39.4973 49.1965 39.5829Z" fill="black"/>
<path id="Vector_117" d="M50.8032 40.3166C50.8032 40.3166 49.1285 45.8501 47.6264 50.2726C46.946 52.2848 46.297 54.0559 45.8679 54.9624C45.4848 55.7765 44.9013 56.4797 44.1722 57.006C43.331 57.5821 42.3588 57.9377 41.3448 58.0403C40.3308 58.1428 39.3073 57.989 38.368 57.5929L38.1639 57.5038C35.2488 56.241 27.3407 42.0877 27.3407 42.0877L31.2817 37.7438L31.8364 38.4512C33.7467 40.9035 39.9172 48.8054 39.8492 48.6482C39.7811 48.491 44.0361 38.5141 44.0361 38.5141C46.0297 39.8498 48.4103 40.4839 50.8032 40.3166Z" fill="#17CBEB"/>
<g id="Vector_118" style="mix-blend-mode:multiply" opacity="0.3">
<path d="M47.6107 50.2516C46.9303 52.2637 46.2814 54.0349 45.8522 54.9414C45.4691 55.7555 44.8856 56.4587 44.1565 56.985C43.3153 57.5611 42.3432 57.9167 41.3291 58.0192C40.3151 58.1218 39.2916 57.9679 38.3524 57.5719V53.9406L47.6107 50.2516Z" fill="#D35A24"/>
</g>
<g id="Vector_119" style="mix-blend-mode:multiply" opacity="0.3">
<path d="M44.1565 56.985C43.2834 57.5808 42.2709 57.9398 41.2179 58.0271C40.1649 58.1143 39.1073 57.9268 38.1482 57.4828C35.2331 56.22 27.325 42.0667 27.325 42.0667L31.266 37.7228L31.8207 38.4302C34.9295 42.968 40.8593 51.9861 44.1565 56.985Z" fill="#D35A24"/>
</g>
<path id="Vector_120" d="M51.7715 52.2271L53.1741 49.6071C53.1741 49.6071 56.0264 51.1214 57.0051 58.95L54.2208 58.5465L51.7715 52.2271Z" fill="black"/>
<path id="Vector_121" d="M70.8743 51.8026C66.8078 54.6951 62.8197 54.0453 57.9734 55.5178C57.8105 55.5861 57.653 55.6667 57.5023 55.7588C56.2096 56.4819 52.7501 58.5465 52.7501 58.5465L50.8032 52.4367L54.3726 50.807L56.2933 49.9319C56.7102 48.9399 57.2368 47.9978 57.8634 47.1233C58.6747 46.1277 59.8575 44.4352 59.9569 42.9313C60.0563 41.4274 61.527 42.1139 61.8829 43.3924C62.0883 44.372 62.157 45.3755 62.087 46.374C62.087 46.374 63.924 46.898 66.2739 45.2264C68.6239 43.5549 68.3674 43.1828 69.4142 42.9889C70.4609 42.7951 70.5185 43.9164 70.1992 44.3513C70.1992 44.3513 71.5286 43.4553 72.0938 43.5391C72.8527 43.6492 73.2504 44.802 72.0938 45.9024C72.2787 45.7597 72.5076 45.6864 72.7408 45.695C72.9741 45.7036 73.1969 45.7937 73.3708 45.9495C73.9884 46.5155 73.5226 47.1967 72.9102 47.6525C72.9102 47.6525 73.554 47.3905 73.8837 47.6211C74.2134 47.8517 74.9461 48.9049 70.8743 51.8026Z" fill="#F68080"/>
<path id="Vector_122" d="M57.5023 55.7588C56.2096 56.4819 52.7501 58.5465 52.7501 58.5465L50.8032 52.4366L54.3726 50.807C55.271 52.545 56.3181 54.2018 57.5023 55.7588Z" fill="black"/>
<path id="Vector_123" d="M65.2639 47.9197C66.2945 47.7083 67.2687 47.2805 68.1221 46.6645C68.9755 46.0484 69.6888 45.2583 70.2149 44.3461" stroke="#231F20" stroke-width="0.35" stroke-linecap="round" stroke-linejoin="round"/>
<path id="Vector_124" d="M66.3734 49.78C66.3734 49.78 68.2157 49.6228 72.1304 45.8815" stroke="#231F20" stroke-width="0.35" stroke-linecap="round" stroke-linejoin="round"/>
<path id="Vector_125" d="M67.551 51.352C69.6361 50.5882 71.4943 49.3083 72.9521 47.6316" stroke="#231F20" stroke-width="0.35" stroke-linecap="round" stroke-linejoin="round"/>
<path id="Vector_126" d="M87.0673 121.966C85.089 124.178 76.4168 125.886 76.4168 125.886L76.6157 123.748C76.7336 122.718 76.7965 121.682 76.8041 120.646C76.8303 119.268 76.8041 118.026 76.8041 118.026L85.3559 117.025C85.5766 117.988 85.8527 118.939 86.1828 119.87C86.4362 120.586 86.7316 121.286 87.0673 121.966Z" fill="#17CBEB"/>
<path id="Vector_127" d="M86.1986 119.886C83.087 120.418 79.9344 120.672 76.778 120.646C76.8041 119.268 76.778 118.026 76.778 118.026L85.3298 117.025C85.5636 117.995 85.8537 118.95 86.1986 119.886Z" fill="black"/>
<path id="Vector_128" d="M88.1245 117.135C82.2 120.625 74.5536 120.279 74.5536 120.279L66.7398 90.6101H35.8611C31.1508 90.6101 27.9792 86.3395 26.5033 83.7981C26.151 83.1992 25.8347 82.5798 25.556 81.9432C33.7206 80.1249 51.379 73.533 51.379 73.533C51.379 73.533 56.7016 74.0151 62.5319 75.0211C68.2104 76.0063 74.3705 77.4839 76.5582 79.4961C80.2741 82.9073 88.1245 117.135 88.1245 117.135Z" fill="#1273EB"/>
<path id="Vector_129" d="M62.5423 75.0159C48.4114 82.7187 32.6058 83.7143 26.5138 83.7929C26.1614 83.194 25.8451 82.5745 25.5665 81.9379C33.731 80.1196 51.3894 73.5277 51.3894 73.5277C51.3894 73.5277 56.712 74.0098 62.5423 75.0159Z" fill="black"/>
<path id="Vector_130" d="M87.2453 120.274C87.3814 120.148 90.532 123.716 94.5724 124.822C98.6128 125.928 99.9369 126.033 100.01 128.16C100.01 128.16 75.4538 128.375 75.4538 128.16C75.3999 126.439 75.6937 124.724 76.3174 123.119C76.3174 123.119 84.8849 122.496 87.2453 120.274Z" fill="black"/>
<path id="Vector_131" d="M99.7433 127.615H75.548C75.1607 127.615 74.8467 127.929 74.8467 128.317V130.298C74.8467 130.686 75.1607 131 75.548 131H99.7433C100.131 131 100.445 130.686 100.445 130.298V128.317C100.445 127.929 100.131 127.615 99.7433 127.615Z" fill="#17CBEB"/>
<path id="Vector_132" d="M71.1308 88.3359C71 88.1053 69.6915 89.7717 66.7397 90.6048C69.2217 91.521 71.951 91.5061 74.4228 90.5629" stroke="#231F20" stroke-width="0.35" stroke-linecap="round" stroke-linejoin="round"/>
<path id="Vector_133" d="M31.3968 31.9064L30.7374 35.3124L30.0779 38.7551L24.1586 34.9037L25.3257 31.8278L25.8857 30.3553L31.3968 31.9064Z" fill="#F68080"/>
<path id="Vector_134" d="M31.3968 31.9064L30.7426 35.3124C27.9425 35.1447 26.0322 32.7972 25.3309 31.8278L25.8857 30.3553L31.3968 31.9064Z" fill="black"/>
<path id="Vector_135" d="M36.3636 27.738C37.2303 23.7745 35.3304 19.9909 32.12 19.2872C28.9095 18.5834 25.6043 21.2259 24.7376 25.1894C23.8709 29.1528 25.7708 32.9364 28.9812 33.6401C32.1916 34.3439 35.4968 31.7014 36.3636 27.738Z" fill="#F68080"/>
<path id="Vector_136" d="M28.1886 26.2577C28.1886 26.2577 31.8992 26.4987 33.5478 24.0464C33.5478 24.0464 36.6881 24.649 37.6929 23.3966C38.6978 22.1443 34.7725 14.3419 26.4353 17.3287C26.4305 16.9773 26.3192 16.6355 26.116 16.3488C26.0271 16.2126 25.8805 16.0711 25.7183 16.1078C25.556 16.1445 25.4985 16.3331 25.4828 16.4903C25.4543 16.8091 25.5237 17.1291 25.6816 17.4073C25.4215 17.209 25.1186 17.0744 24.7972 17.0143C24.6368 16.987 24.4719 17.0119 24.3268 17.0855C24.1817 17.1591 24.064 17.2774 23.9912 17.423C23.9543 17.5809 23.9612 17.7457 24.011 17.8999C24.0608 18.0541 24.1516 18.1918 24.2738 18.2981C24.497 18.5513 24.8112 18.7058 25.1478 18.7278L25.0327 18.8274C24.1021 19.6625 23.3952 20.7177 22.9765 21.8966C22.5578 23.0755 22.4406 24.3406 22.6356 25.5765C23.3474 29.7685 25.3153 30.6331 25.3153 30.6331L27.4087 29.0244C26.6342 28.6943 25.8387 28.5318 25.98 26.6874C26.1474 24.4446 27.7751 24.7066 28.1886 26.2577Z" fill="black"/>
<path id="Vector_137" d="M55.3147 73.3599C54.9692 73.2656 39.4305 83.6041 24.2057 82.8181C24.2057 82.8181 19.2861 73.2342 16.6797 65.7882C15.2876 61.811 13.8221 54.0715 14.6491 47.1023C14.8858 44.8134 15.4663 42.5734 16.3709 40.458C17.7788 37.314 20.0659 34.7988 23.5829 33.646C23.6719 33.6827 29.0155 35.8573 32.0091 39.5043C32.3417 39.9011 32.6427 40.3233 32.9093 40.7672C34.1916 42.8998 37.269 48.0298 40.4249 53.1493C43.5128 58.1587 46.6791 63.1524 48.312 65.3218C48.4847 65.5524 48.6417 65.7515 48.7778 65.9139C51.5307 69.1679 55.6549 73.4385 55.3147 73.3599Z" fill="#17CBEB"/>
<g id="Vector_138" style="mix-blend-mode:multiply" opacity="0.3">
<path d="M48.3172 65.2851C45.0828 66.9514 35.7564 71.6045 32.9721 71.4054C29.5859 71.1644 22.2431 64.8607 17.5642 55.2505C16.2607 52.6578 15.2816 49.9141 14.649 47.0814C14.8858 44.7925 15.4663 42.5525 16.3709 40.437L18.6947 40.306L19.218 37.031C19.218 37.031 23.2689 36.0669 27.3041 42.0667C30.0867 46.3297 32.607 50.7588 34.851 55.3291L40.4092 53.1126C43.518 58.122 46.6843 63.1158 48.3172 65.2851Z" fill="#D35A24"/>
</g>
<g id="Vector_139" style="mix-blend-mode:multiply" opacity="0.3">
<path d="M32.4854 44.3461L23.5881 33.6094C23.6771 33.6461 29.0207 35.8207 32.0143 39.4677L32.4854 44.3461Z" fill="#D35A24"/>
</g>
<path id="Vector_140" d="M23.5829 33.6041L24.6977 32.619L31.784 37.0678L31.648 42.1506L23.5829 33.6041Z" fill="#1273EB"/>
<path id="Vector_141" d="M34.0241 56.6601C34.0241 56.6601 25.7287 37.0154 19.8199 36.9944C13.9111 36.9735 9.81838 47.794 28.3299 66.941C28.3299 66.941 31.3549 70.8553 34.9452 69.4353C38.5355 68.0152 57.0051 58.9552 57.0051 58.9552C57.0051 58.9552 53.4044 53.8724 53.1741 49.6123L34.0241 56.6601Z" fill="#17CBEB"/>
<path id="Vector_142" d="M30.8682 60.1972C31.544 58.7341 32.6365 57.5036 34.0084 56.6602C34.0084 56.6602 30.4181 57.5772 28.8637 60.4539" stroke="#231F20" stroke-width="0.35" stroke-linecap="round" stroke-linejoin="round"/>
<path id="Vector_143" d="M125.576 48.137L124.922 48.1754L124.967 48.9391L125.62 48.9007L125.576 48.137Z" fill="black"/>
<path id="Vector_144" d="M125.959 63.493L125.995 64.1166L125.624 65.3637L125.032 65.4004L124.519 64.2057L124.483 63.5769L125.959 63.493Z" fill="#999999"/>
<g id="Vector_145" style="mix-blend-mode:multiply" opacity="0.5">
<path d="M125.959 63.493L125.995 64.1166L125.624 65.3637L125.55 65.369L125.441 63.5192L125.959 63.493Z" fill="#666666"/>
</g>
<g id="Vector_146" style="mix-blend-mode:multiply" opacity="0.5">
<path d="M125.949 63.5177L124.47 63.6044L124.498 64.0699L125.976 63.9833L125.949 63.5177Z" fill="#666666"/>
</g>
<path id="Vector_147" d="M125.111 49.0297L123.633 49.1166L124.492 63.779L125.971 63.6921L125.111 49.0297Z" fill="#666666"/>
<g id="Vector_148" style="mix-blend-mode:multiply" opacity="0.5">
<path d="M125.109 49.03L124.592 49.0604L125.452 63.7229L125.969 63.6925L125.109 49.03Z" fill="#666666"/>
</g>
<path id="Vector_149" d="M125.112 49.028L123.634 49.1149L123.662 49.5961L125.141 49.5092L125.112 49.028Z" fill="black"/>
<path id="Vector_150" d="M124.938 46.1119L125.059 48.2079L123.583 48.2918L123.462 46.2272C123.458 46.1713 123.465 46.1151 123.483 46.062C123.501 46.0088 123.529 45.9597 123.566 45.9177C123.603 45.8757 123.648 45.8416 123.699 45.8173C123.749 45.7931 123.804 45.7792 123.86 45.7766L124.488 45.7399C124.597 45.7311 124.705 45.765 124.789 45.8345C124.873 45.9039 124.926 46.0035 124.938 46.1119Z" fill="#666666"/>
<g id="Vector_151" style="mix-blend-mode:multiply" opacity="0.5">
<path d="M124.938 46.112L125.059 48.208L124.535 48.2394L124.389 45.7452H124.478C124.587 45.7334 124.697 45.7653 124.783 45.8339C124.869 45.9026 124.925 46.0025 124.938 46.112Z" fill="#666666"/>
</g>
<path id="Vector_152" d="M125.031 47.8962L123.583 47.9813C123.503 47.986 123.441 48.0554 123.446 48.1363L123.503 49.1198C123.508 49.2006 123.577 49.2624 123.658 49.2576L125.105 49.1726C125.186 49.1678 125.248 49.0984 125.243 49.0175L125.185 48.0341C125.181 47.9532 125.111 47.8914 125.031 47.8962Z" fill="#999999"/>
<path id="Vector_153" d="M125.731 47.8692L125.585 47.8778C125.504 47.8825 125.442 47.9519 125.447 48.0328L125.743 53.0703C125.747 53.1512 125.817 53.2129 125.897 53.2081L126.044 53.1995C126.124 53.1948 126.186 53.1254 126.181 53.0445L125.886 48.007C125.881 47.9261 125.812 47.8644 125.731 47.8692Z" fill="#999999"/>
<path id="Vector_154" d="M127.372 48.3181L127.079 48.2919L127.178 47.2439C127.18 47.2246 127.186 47.2058 127.195 47.1888C127.204 47.1717 127.217 47.1566 127.232 47.1444C127.247 47.1323 127.264 47.1232 127.283 47.1178C127.302 47.1124 127.321 47.1107 127.34 47.1129C127.379 47.1181 127.414 47.1378 127.438 47.168C127.462 47.1982 127.474 47.2366 127.471 47.2753L127.372 48.3181Z" fill="black"/>
<path id="Vector_155" d="M126.954 62.7876L126.365 62.7297L126.298 63.4181L126.886 63.476L126.954 62.7876Z" fill="black"/>
<path id="Vector_156" d="M127.77 49.6071L127.827 49.0359L127.534 47.8988L127 47.8464L126.487 48.9049L126.435 49.4761L127.77 49.6071Z" fill="#FBC222"/>
<g id="Vector_157" style="mix-blend-mode:multiply" opacity="0.3">
<path d="M127.77 49.607L127.827 49.0359L127.534 47.8988L127.466 47.8883L127.304 49.5599L127.77 49.607Z" fill="#D35A24"/>
</g>
<path id="Vector_158" d="M126.478 49.0556L126.436 49.478L127.77 49.6092L127.811 49.1868L126.478 49.0556Z" fill="black"/>
<path id="Vector_159" d="M126.431 49.2828L125.131 62.5287L126.464 62.6598L127.764 49.414L126.431 49.2828Z" fill="#FBC222"/>
<g id="Vector_160" style="mix-blend-mode:multiply" opacity="0.3">
<path d="M127.298 49.3629L125.998 62.6088L126.467 62.6549L127.766 49.409L127.298 49.3629Z" fill="#D35A24"/>
</g>
<path id="Vector_161" d="M125.181 62.0998L125.139 62.5326L126.472 62.6637L126.515 62.2309L125.181 62.0998Z" fill="black"/>
<path id="Vector_162" d="M126.226 65.3271L126.409 63.4564L125.074 63.3254L124.891 65.1961C124.882 65.2974 124.914 65.398 124.978 65.4764C125.043 65.5548 125.135 65.6047 125.236 65.6153L125.807 65.673C125.908 65.6818 126.009 65.6504 126.087 65.5858C126.165 65.5211 126.215 65.4282 126.226 65.3271Z" fill="#FBC222"/>
<g id="Vector_163" style="mix-blend-mode:multiply" opacity="0.3">
<path d="M126.226 65.327L126.409 63.4563L125.943 63.4144L125.723 65.6624H125.807C125.906 65.6714 126.006 65.6415 126.084 65.579C126.162 65.5165 126.213 65.4262 126.226 65.327Z" fill="#D35A24"/>
</g>
<path id="Vector_164" d="M127.468 58.9534L127.343 58.9411C127.269 58.9337 127.202 58.9884 127.195 59.0633L126.747 63.6053C126.74 63.6802 126.795 63.7469 126.87 63.7543L126.995 63.7666C127.069 63.774 127.136 63.7193 127.143 63.6444L127.591 59.1024C127.598 59.0275 127.543 58.9608 127.468 58.9534Z" fill="#39B597"/>
<path id="Vector_165" d="M126.495 62.5062L125.198 62.3787C125.123 62.3713 125.057 62.4261 125.049 62.5009L124.963 63.3823C124.956 63.4571 125.01 63.5238 125.085 63.5312L126.382 63.6587C126.457 63.6661 126.523 63.6113 126.531 63.5364L126.617 62.6551C126.625 62.5802 126.57 62.5136 126.495 62.5062Z" fill="#39B597"/>
<path id="Vector_166" d="M120.809 50.8856L120.73 51.5144L120.024 51.614L119.778 51.0323L119.93 50.0315L119.987 49.6699C119.991 49.6422 120.004 49.6166 120.024 49.5968C120.044 49.577 120.069 49.564 120.097 49.5599C120.124 49.5568 120.152 49.5628 120.176 49.577C120.199 49.5912 120.218 49.6128 120.228 49.6385L120.38 49.9686L120.809 50.8856Z" fill="#F6921E"/>
<g id="Vector_167" style="mix-blend-mode:multiply" opacity="0.5">
<path d="M120.809 50.8857L120.73 51.5145H120.605L120.521 50.9119L120.102 49.5443C120.13 49.5412 120.157 49.5472 120.181 49.5614C120.205 49.5756 120.223 49.5972 120.233 49.6228L120.385 49.953L120.809 50.8857Z" fill="#F6921E"/>
</g>
<path id="Vector_168" d="M120.411 49.9686C120.342 50.0022 120.268 50.0252 120.191 50.0367C120.113 50.0499 120.034 50.0499 119.956 50.0367L120.013 49.6752C120.019 49.6483 120.032 49.6238 120.052 49.6051C120.072 49.5864 120.098 49.5745 120.125 49.571C120.152 49.5675 120.18 49.5727 120.204 49.5857C120.228 49.5988 120.247 49.6191 120.259 49.6437L120.411 49.9686Z" fill="black"/>
<path id="Vector_169" d="M120.809 50.8856L122.771 64.9183C122.776 64.9493 122.774 64.9809 122.766 65.0112C122.758 65.0415 122.744 65.0699 122.725 65.0948C122.706 65.1197 122.683 65.1405 122.655 65.1561C122.628 65.1717 122.598 65.1817 122.567 65.1856L122.002 65.2642C121.971 65.2694 121.94 65.2683 121.91 65.261C121.88 65.2537 121.851 65.2403 121.826 65.2217C121.801 65.2031 121.78 65.1796 121.765 65.1527C121.749 65.1258 121.739 65.096 121.735 65.0651L119.778 51.0323L120.809 50.8856Z" fill="#39B597"/>
<path id="Vector_170" d="M122.631 62.7493L121.594 62.896L121.717 63.7625L122.753 63.6157L122.631 62.7493Z" fill="#FBC222"/>
<path id="Vector_171" d="M120.809 50.8856L122.771 64.9183C122.776 64.9493 122.774 64.9809 122.766 65.0112C122.758 65.0415 122.744 65.0699 122.725 65.0948C122.706 65.1197 122.683 65.1405 122.655 65.1561C122.628 65.1717 122.598 65.1817 122.567 65.1856H122.51L120.521 50.9171L120.809 50.8856Z" fill="black"/>
<path id="Vector_172" d="M123.242 51.09L123.101 51.7031L122.389 51.7345L122.201 51.1319L122.452 50.1521L122.546 49.7957C122.553 49.769 122.569 49.7452 122.591 49.7281C122.612 49.7111 122.639 49.7017 122.667 49.7014C122.693 49.701 122.719 49.7089 122.74 49.7239C122.762 49.739 122.778 49.7604 122.787 49.7853L122.908 50.1311L123.242 51.09Z" fill="#F6921E"/>
<g id="Vector_173" style="mix-blend-mode:multiply" opacity="0.5">
<path d="M123.242 51.09L123.101 51.7031H122.976V51.0953L122.698 49.6962C122.724 49.6958 122.75 49.7036 122.772 49.7187C122.793 49.7337 122.81 49.7552 122.819 49.78L122.939 50.1259L123.242 51.09Z" fill="#F6921E"/>
</g>
<path id="Vector_174" d="M122.913 50.131C122.839 50.1602 122.761 50.1762 122.682 50.1782C122.606 50.1913 122.528 50.1913 122.452 50.1782L122.546 49.8219C122.553 49.7951 122.569 49.7713 122.591 49.7543C122.612 49.7372 122.639 49.7278 122.667 49.7275C122.694 49.7251 122.721 49.732 122.744 49.7473C122.767 49.7625 122.784 49.7852 122.792 49.8114L122.913 50.131Z" fill="black"/>
<path id="Vector_175" d="M123.242 51.09L123.802 65.238C123.804 65.2689 123.799 65.2999 123.789 65.329C123.778 65.3582 123.762 65.385 123.741 65.4078C123.72 65.4307 123.695 65.4492 123.667 65.4623C123.639 65.4755 123.608 65.4829 123.577 65.4842L123.028 65.5C122.997 65.5014 122.966 65.4967 122.937 65.4861C122.908 65.4755 122.881 65.4593 122.858 65.4384C122.835 65.4175 122.817 65.3922 122.804 65.3641C122.791 65.336 122.783 65.3056 122.782 65.2746L122.222 51.1266L123.242 51.09Z" fill="#462ABC"/>
<path id="Vector_176" d="M123.746 63.6385L122.7 63.6802L122.735 64.5546L123.781 64.5129L123.746 63.6385Z" fill="#FBC222"/>
<path id="Vector_177" d="M123.242 51.09L123.802 65.238C123.804 65.2689 123.799 65.2999 123.789 65.329C123.778 65.3582 123.762 65.385 123.741 65.4078C123.72 65.4307 123.695 65.4492 123.667 65.4623C123.639 65.4755 123.608 65.4829 123.577 65.4842H123.52L122.949 51.09H123.242Z" fill="black"/>
<path id="Vector_178" d="M119.663 52.5991V65.6991H128.262V52.5991H119.663ZM127.707 65.1751H120.202V53.1231H127.707V65.1751Z" fill="#1273EB"/>
<path id="Vector_179" d="M128.916 66.6476V66.0241C128.916 65.8934 128.864 65.7681 128.772 65.6758C128.679 65.5834 128.554 65.5315 128.424 65.5315H119.479C119.415 65.5315 119.351 65.5442 119.291 65.569C119.231 65.5937 119.177 65.63 119.132 65.6758C119.086 65.7215 119.05 65.7758 119.025 65.8356C119 65.8953 118.987 65.9594 118.987 66.0241V66.6371L128.916 66.6476Z" fill="#1273EB"/>
<path id="Vector_180" d="M128.262 52.5991H127.738L127.545 52.793L127.351 52.5991H126.691L127.215 53.1231L126.351 53.9877L125.493 53.1231L126.016 52.5991H125.331L125.137 52.793L124.949 52.5991H124.263L124.786 53.1231L123.928 53.9877L123.065 53.1231L123.588 52.5991H122.908L122.714 52.793L122.52 52.5991H121.84L122.363 53.1231L121.5 53.9877L120.641 53.1231L121.165 52.5991H120.484L120.291 52.793L120.097 52.5991H119.605V52.793L119.95 53.1336L119.605 53.4794V54.1606L120.291 53.4742L121.149 54.3388L120.291 55.1982L119.605 54.517V55.1982L119.95 55.544L119.605 55.8846V56.592L120.291 55.9056L121.149 56.7649L120.291 57.6295L119.605 56.9431V57.6243L119.95 57.9701L119.605 58.316V58.9972L120.291 58.3107L121.149 59.1753L120.291 60.0347L119.605 59.3535V60.0347L119.95 60.3805L119.605 60.7211V61.4076L120.291 60.7211L121.149 61.5805L120.291 62.4451L119.605 61.7586V62.4398L119.95 62.7857L119.605 63.1315V63.8127L120.291 63.1263L121.149 63.9909L120.291 64.8502L119.605 64.1638V64.8502L119.95 65.1908L119.605 65.5367V65.7253H120.097L120.291 65.5314L120.484 65.7253H121.165L120.641 65.2013L121.5 64.342L122.363 65.2013L121.84 65.7253H122.52L122.714 65.5314L122.908 65.7253H123.588L123.065 65.2013L123.928 64.342L124.786 65.2013L124.263 65.7253H124.943L125.137 65.5314L125.331 65.7253H126.016L125.493 65.2013L126.351 64.342L127.215 65.2013L126.691 65.7253H127.372L127.565 65.5314L127.759 65.7253H128.262V65.5L127.916 65.1542L128.262 64.8136V64.1271L127.576 64.8136L126.691 63.9699L127.555 63.1053L128.241 63.7918V63.1106L127.895 62.7647L128.241 62.4189V61.7377L127.555 62.4241L126.691 61.5595L127.555 60.7002L128.241 61.3866V60.7002L127.895 60.3596L128.241 60.0137V59.3273L127.555 60.0137L126.691 59.1544L127.555 58.2898L128.241 58.9762V58.295L127.895 57.9492L128.241 57.6033V56.9221L127.555 57.6086L126.691 56.744L127.555 55.8846L128.262 56.592V55.9056L127.916 55.565L128.262 55.2191V54.496L127.576 55.1772L126.691 54.3388L127.555 53.4742L128.241 54.1659V53.4794L127.895 53.1336L128.241 52.793L128.262 52.5991ZM125.168 53.4742L126.032 54.3388L125.168 55.1982L124.31 54.3388L125.168 53.4742ZM122.766 57.6086L121.908 56.744L122.766 55.8846L123.63 56.744L122.766 57.6086ZM123.97 57.0846L124.828 57.9439L123.97 58.8085L123.106 57.9439L123.97 57.0846ZM123.63 59.1491L122.766 60.0085L121.908 59.1491L122.766 58.2845L123.63 59.1491ZM123.63 61.5543L122.766 62.4189L121.908 61.5543L122.766 60.6949L123.63 61.5543ZM123.106 60.3543L123.97 59.4897L124.828 60.3543L123.97 61.2137L123.106 60.3543ZM125.168 60.6949L126.032 61.5543L125.168 62.4189L124.31 61.5543L125.168 60.6949ZM124.31 59.1229L125.168 58.2583L126.032 59.1229L125.168 59.9823L124.31 59.1229ZM124.31 56.7125L125.168 55.8532L126.032 56.7125L125.168 57.5771L124.31 56.7125ZM124.834 55.5126L123.975 56.3719L123.091 55.544L123.954 54.6794L124.834 55.5126ZM122.771 53.4428L123.635 54.3074L122.771 55.1667L121.913 54.3074L122.771 53.4428ZM120.688 55.544L121.547 54.6794L122.41 55.544L121.547 56.4034L120.688 55.544ZM120.688 57.9492L121.547 57.0898L122.41 57.9492L121.547 58.8138L120.688 57.9492ZM120.688 60.3596L121.547 59.495L122.41 60.3596L121.547 61.2189L120.688 60.3596ZM120.688 62.7647L121.547 61.9001L122.41 62.7647L121.547 63.6241L120.688 62.7647ZM122.75 64.8293L121.892 63.9699L122.75 63.1053L123.614 63.9699L122.75 64.8293ZM123.091 62.7647L123.954 61.9001L124.813 62.7647L123.954 63.6241L123.091 62.7647ZM125.153 64.8293L124.294 63.9699L125.153 63.1053L126.016 63.9699L125.153 64.8293ZM127.246 62.7647L126.383 63.6241L125.524 62.7647L126.383 61.9001L127.246 62.7647ZM127.246 60.3596L126.383 61.2189L125.524 60.3596L126.383 59.495L127.246 60.3596ZM127.246 57.9492L126.383 58.8138L125.524 57.9492L126.383 57.0898L127.246 57.9492ZM127.246 55.544L126.383 56.4034L125.498 55.544L126.356 54.6794L127.246 55.544Z" fill="#17CBEB"/>
<path id="Vector_181" d="M128.712 115.463H48.0346V118.466H128.712V115.463Z" fill="#666666"/>
<path id="Vector_182" d="M60.4646 68.5287L59.4388 73.0822L46.3703 131H41.5396L54.6029 73.0822L55.6286 68.5287H60.4646Z" fill="#999999"/>
<path id="Vector_183" d="M60.4646 68.5287L59.4388 73.0822H54.6029L55.6287 68.5287H60.4646Z" fill="black"/>
<path id="Vector_184" d="M116.282 68.5287L117.307 73.0822L130.371 131H135.207L122.138 73.0822L121.112 68.5287H116.282Z" fill="#999999"/>
<path id="Vector_185" d="M116.282 68.5287L117.307 73.0822H122.138L121.112 68.5287H116.282Z" fill="black"/>
<path id="Vector_186" d="M133.71 66.7891H43.0312C42.4329 66.7891 41.9479 67.2747 41.9479 67.8737V70.3208C41.9479 70.9199 42.4329 71.4055 43.0312 71.4055H133.71C134.308 71.4055 134.793 70.9199 134.793 70.3208V67.8737C134.793 67.2747 134.308 66.7891 133.71 66.7891Z" fill="#666666"/>
<path id="Vector_187" d="M148.254 96.94C148.701 96.7007 149.191 96.5538 149.695 96.5079C150.199 96.462 150.708 96.518 151.19 96.6728C151.512 96.7599 151.801 96.9426 152.017 97.1968C152.164 97.4176 152.245 97.6756 152.252 97.9408C152.258 98.206 152.19 98.4677 152.054 98.6954C151.775 99.1464 151.391 99.5224 150.934 99.7906C149.154 100.97 147.071 101.583 145.004 102.101C145.712 102.181 146.404 102.368 147.056 102.657C147.282 102.739 147.481 102.883 147.631 103.071C147.977 103.569 147.595 104.255 147.108 104.643C145.768 105.764 143.879 105.838 142.178 106.251C141.331 106.477 140.497 106.749 139.681 107.069C139.158 107.268 138.472 107.593 137.949 107.252L137.886 107.2C136.673 110.33 135.966 113.635 135.793 116.988L135.337 117.14C135.249 116.889 135.568 111.628 137.577 106.76C137.201 105.848 137.577 104.276 137.389 103.396C137.358 103.265 137.332 103.139 137.305 103.008C136.84 100.791 136.473 98.4072 137.494 96.4108C137.808 95.8029 138.42 95.1899 139.064 95.389C139.823 95.6143 139.891 96.6571 140.341 97.3121C140.231 96.5366 140.289 95.7464 140.514 94.996C140.649 94.5053 140.812 94.0225 141 93.5497C141.382 92.5751 141.874 91.5323 142.816 91.066C143.072 90.9094 143.374 90.8473 143.67 90.8904C143.966 90.9334 144.238 91.079 144.439 91.3018C144.566 91.5266 144.639 91.7776 144.653 92.0354C144.717 92.6515 144.736 93.2714 144.711 93.8903C145.71 91.9753 147.305 90.4377 149.254 89.5097C150.086 89.1219 151.133 88.8652 151.871 89.4154C151.922 89.4527 151.971 89.4929 152.017 89.5359C152.229 89.7696 152.384 90.0493 152.469 90.353C152.554 90.6567 152.568 90.9761 152.509 91.2861C152.361 91.9662 152.064 92.605 151.64 93.1567C150.679 94.5586 149.541 95.8302 148.254 96.94Z" fill="#39B597"/>
<path id="Vector_188" d="M140.215 98.2709C139.629 99.9778 138.677 101.536 137.426 102.835L137.295 102.971C136.829 100.755 136.463 98.3705 137.483 96.374C137.797 95.7662 138.41 95.1531 139.053 95.3522C139.812 95.5775 139.88 96.6203 140.33 97.2753C140.22 96.4999 140.279 95.7097 140.503 94.9592C140.655 96.0708 140.557 97.2023 140.215 98.2709Z" fill="black"/>
<path id="Vector_189" d="M139.446 95.803C139.221 97.7523 137.74 99.2771 136.677 100.933C136.16 101.779 135.692 102.654 135.275 103.553C135.023 104.077 134.751 104.727 134.228 104.968H134.191C134.593 108.312 135.208 111.627 136.034 114.892L135.557 115.008C134.731 111.732 134.114 108.406 133.71 105.052H133.605C132.454 104.858 131.438 102.987 130.507 102.353C128.303 100.849 125.943 99.1461 125.189 96.589C125.095 96.2786 125.054 95.9542 125.069 95.6301C125.064 95.4087 125.119 95.1901 125.226 94.9968C125.334 94.8034 125.491 94.6422 125.681 94.5297C126.477 94.1262 127.34 94.9227 128.214 95.1061C127.053 94.2415 126.388 92.8686 125.838 91.5271C125.393 90.4372 124.991 89.2058 125.388 88.0949C125.619 87.4609 126.241 86.8793 126.901 87.0469C127.177 87.1335 127.429 87.2823 127.639 87.4819C128.171 87.9301 128.668 88.4189 129.125 88.9438C128.456 86.608 128.564 84.1176 129.434 81.8489C129.805 80.8899 130.481 79.8786 131.48 79.7529C131.872 79.7327 132.262 79.8195 132.609 80.0041C132.956 80.1887 133.246 80.4641 133.448 80.8009C133.854 81.4693 134.107 82.2189 134.191 82.9964C134.506 84.8923 134.573 86.8211 134.39 88.7342C134.57 88.1926 134.856 87.6925 135.232 87.2633C135.608 86.834 136.065 86.4843 136.578 86.2347C136.905 86.0207 137.292 85.9161 137.682 85.9361C137.972 86.0013 138.238 86.1477 138.448 86.3583C138.659 86.5689 138.805 86.835 138.87 87.1255C138.989 87.7111 138.966 88.3167 138.802 88.8914C138.279 91.2285 137.044 93.3454 135.761 95.3733C136.396 94.8882 137.103 94.5046 137.855 94.2362C138.104 94.1288 138.376 94.0891 138.645 94.1209C139.305 94.2677 139.524 95.1218 139.446 95.803Z" fill="#39B597"/>
<path id="Vector_190" d="M133.741 104.407L133.616 105.031C132.464 104.837 131.449 102.966 130.517 102.332C128.314 100.828 125.954 99.1251 125.2 96.5679C125.105 96.2576 125.064 95.9332 125.079 95.609C125.603 96.0282 126.126 96.657 126.508 97.0186C126.652 96.6011 126.947 96.2526 127.334 96.0413C127.721 95.8299 128.173 95.7711 128.602 95.8763C129.023 95.9949 129.413 96.2079 129.74 96.4994C130.067 96.7908 130.324 97.1529 130.491 97.5583C130.817 98.3731 131.011 99.2344 131.067 100.11C131.705 100.082 132.334 100.275 132.847 100.657C133.36 101.039 133.725 101.586 133.882 102.206C133.985 102.942 133.936 103.69 133.741 104.407Z" fill="black"/>
<g id="Vector_191" style="mix-blend-mode:multiply" opacity="0.5">
<path d="M139.446 95.8029C139.221 97.7522 137.74 99.277 136.677 100.933C136.16 101.779 135.692 102.654 135.275 103.553C135.023 104.077 134.751 104.727 134.228 104.968C134.076 104.394 134.076 103.791 134.228 103.218C134.566 101.816 134.679 100.369 134.563 98.9312C134.556 98.668 134.489 98.4098 134.369 98.1758C134.248 97.9418 134.077 97.7379 133.867 97.5793C133.642 97.4535 133.343 97.4168 133.139 97.2911C132.91 97.1334 132.733 96.9098 132.633 96.6497C132.534 96.3897 132.515 96.1054 132.579 95.8344C132.722 95.295 132.973 94.7904 133.317 94.3514C133.71 93.7908 134.097 93.2248 134.479 92.6642C134.748 92.3485 134.929 91.967 135.003 91.5585C135.026 91.3543 134.973 91.1484 134.853 90.9816C134.733 90.8148 134.555 90.6991 134.354 90.6572C133.856 90.6258 133.521 91.2074 133.035 91.307C132.809 91.3203 132.585 91.2602 132.396 91.1355C132.208 91.0108 132.064 90.8283 131.988 90.6153C131.855 90.174 131.822 89.7088 131.888 89.2529C132.067 86.8396 132.092 84.4172 131.962 82.0008C131.867 81.2264 131.711 80.4608 131.496 79.7109C131.888 79.6907 132.278 79.7775 132.625 79.9621C132.971 80.1467 133.261 80.4221 133.464 80.7589C133.869 81.4273 134.123 82.1769 134.207 82.9544C134.522 84.8503 134.589 86.7791 134.406 88.6922C134.586 88.1507 134.872 87.6505 135.248 87.2213C135.623 86.792 136.081 86.4423 136.594 86.1928C136.921 85.9966 137.302 85.9069 137.682 85.936C137.972 86.0012 138.238 86.1477 138.448 86.3582C138.659 86.5688 138.805 86.8349 138.87 87.1255C138.989 87.7111 138.966 88.3167 138.802 88.8914C138.279 91.2284 137.044 93.3454 135.761 95.3732C136.396 94.8881 137.103 94.5045 137.855 94.2362C138.104 94.1288 138.376 94.089 138.645 94.1209C139.305 94.2676 139.524 95.1217 139.446 95.8029Z" fill="#31A186"/>
</g>
<path id="Vector_192" d="M134.898 117.538L134.416 117.507C134.368 114.607 133.285 111.819 131.365 109.647C130.967 109.83 130.481 109.589 130.093 109.437C129.46 109.173 128.812 108.947 128.152 108.761C126.833 108.41 125.357 108.326 124.321 107.43C123.965 107.116 123.677 106.576 123.954 106.194C124.074 106.048 124.231 105.939 124.41 105.879C124.922 105.66 125.466 105.522 126.022 105.471C124.391 105.106 122.835 104.465 121.421 103.574C121.067 103.36 120.772 103.061 120.563 102.704C120.46 102.525 120.409 102.32 120.418 102.113C120.426 101.906 120.493 101.706 120.61 101.535C120.783 101.342 121.012 101.207 121.264 101.148C121.644 101.034 122.042 100.998 122.436 101.041C122.829 101.085 123.21 101.206 123.556 101.399C122.57 100.502 121.701 99.4823 120.971 98.3652C120.652 97.9247 120.431 97.4208 120.322 96.8875C120.271 96.6208 120.292 96.3452 120.384 96.0898C120.477 95.8343 120.636 95.6085 120.845 95.4361L120.882 95.4099C121.463 95.0273 122.253 95.2369 122.881 95.5461C124.393 96.299 125.617 97.5265 126.367 99.0412C126.356 98.5578 126.383 98.0743 126.445 97.595C126.456 97.3934 126.516 97.1975 126.618 97.0238C126.779 96.8522 126.994 96.7422 127.228 96.7125C127.461 96.6829 127.697 96.7355 127.895 96.8614C128.623 97.2439 128.989 98.0613 129.277 98.8316C129.691 99.7559 129.85 100.775 129.737 101.782C130.099 101.258 130.167 100.466 130.784 100.299C131.308 100.152 131.768 100.639 132.004 101.121C132.815 102.793 132.407 104.789 132.004 106.582C131.862 107.179 132.045 108.18 131.894 108.898C131.868 109.042 131.82 109.182 131.752 109.312C135.128 113.278 134.908 117.376 134.898 117.538Z" fill="#39B597"/>
<g id="Vector_193" style="mix-blend-mode:multiply" opacity="0.5">
<path d="M148.254 96.94C148.701 96.7007 149.191 96.5537 149.695 96.5078C150.199 96.4619 150.708 96.518 151.19 96.6727C151.512 96.7599 151.801 96.9426 152.017 97.1967C152.164 97.4176 152.245 97.6755 152.252 97.9408C152.258 98.206 152.19 98.4676 152.054 98.6954C151.775 99.1464 151.391 99.5223 150.934 99.7905C149.154 100.97 147.071 101.583 145.004 102.101C145.712 102.181 146.404 102.368 147.056 102.657C147.282 102.739 147.481 102.883 147.631 103.071C147.977 103.569 147.595 104.255 147.108 104.643C145.768 105.764 143.879 105.837 142.178 106.251C141.331 106.476 140.497 106.749 139.681 107.069C139.158 107.268 138.472 107.593 137.949 107.252C138.054 106.576 138.734 106.026 139.357 105.68C140.214 105.174 141.104 104.726 142.021 104.339C142.348 104.229 142.648 104.051 142.9 103.815C143.024 103.695 143.105 103.537 143.129 103.366C143.152 103.195 143.118 103.021 143.031 102.872C142.722 102.447 141.953 102.589 141.681 102.149C141.409 101.708 141.827 101.226 142.204 100.938C143.012 100.345 143.939 99.9336 144.92 99.7329C145.459 99.6822 145.978 99.5024 146.433 99.2089C146.852 98.8683 146.982 98.1137 146.522 97.8308C146.061 97.5478 145.329 97.9775 144.847 97.6631C145.203 96.7147 146.114 96.0911 146.941 95.499C148.471 94.3521 149.822 92.9834 150.95 91.438C151.398 90.8586 151.752 90.2111 151.996 89.5201C152.208 89.7538 152.363 90.0336 152.448 90.3373C152.533 90.641 152.547 90.9604 152.488 91.2703C152.34 91.9504 152.043 92.5893 151.619 93.141C150.666 94.5471 149.535 95.824 148.254 96.94Z" fill="#31A186"/>
</g>
<g id="Vector_194" style="mix-blend-mode:multiply" opacity="0.5">
<path d="M131.967 106.571C131.826 107.169 132.009 108.169 131.857 108.887C131.579 108.758 131.356 108.535 131.224 108.258C131.059 107.87 130.968 107.454 130.957 107.032L130.643 103.7C130.643 103.411 130.538 103.06 130.256 102.987C130.135 102.973 130.013 102.997 129.906 103.055C129.799 103.113 129.713 103.203 129.659 103.312C129.557 103.533 129.421 103.736 129.256 103.914C128.832 104.271 128.136 103.951 127.911 103.448C127.746 102.917 127.746 102.349 127.911 101.818C128.076 101.29 128.076 100.723 127.911 100.194C127.879 100.095 127.812 100.011 127.722 99.9583C127.524 99.8535 127.288 100.042 127.199 100.252C127.139 100.47 127.059 100.683 126.958 100.886C126.858 101.003 126.726 101.088 126.578 101.131C126.43 101.173 126.273 101.172 126.126 101.127C125.834 101.032 125.57 100.866 125.357 100.645C124.347 99.7015 123.677 98.4649 122.855 97.354C122.436 96.6919 121.905 96.1085 121.285 95.63C121.17 95.5514 121.039 95.4781 120.913 95.3995C121.494 95.017 122.285 95.2266 122.913 95.5357C124.424 96.2887 125.649 97.5161 126.398 99.0308C126.388 98.5474 126.414 98.064 126.477 97.5846C126.488 97.3831 126.547 97.1872 126.65 97.0134C126.81 96.8419 127.026 96.7318 127.259 96.7021C127.492 96.6725 127.728 96.7251 127.927 96.851C128.654 97.2335 129.02 98.0509 129.308 98.8212C129.723 99.7456 129.882 100.764 129.769 101.771C130.13 101.247 130.198 100.456 130.816 100.288C131.339 100.142 131.8 100.629 132.035 101.111C132.799 102.783 132.391 104.763 131.967 106.571Z" fill="#31A186"/>
</g>
<path id="Vector_195" d="M144.371 111.57L143.376 116.873L142.78 120.085L140.739 131H127.393L125.414 120.389L124.755 116.862L123.766 111.57H144.371Z" fill="#1273EB"/>
<path id="Vector_196" d="M143.376 116.852L142.78 120.064L142.691 120.007C142.005 119.614 141.121 119.98 140.55 120.531C140.247 120.829 140.027 121.186 139.687 121.469C139.536 121.622 139.353 121.739 139.151 121.813C138.949 121.886 138.733 121.914 138.52 121.893C137.63 121.741 137.4 120.562 136.73 119.959C136.427 119.721 136.067 119.569 135.685 119.519C135.304 119.47 134.916 119.524 134.563 119.676C133.86 119.993 133.245 120.477 132.773 121.086C132.467 121.55 132.022 121.904 131.501 122.097C130.768 122.265 130.078 121.725 129.586 121.159C129.094 120.593 128.644 119.923 127.932 119.697C127.073 119.42 126.173 119.881 125.414 120.358L124.755 116.852C124.975 116.726 125.184 116.59 125.393 116.459C126.158 115.972 127.068 115.505 127.932 115.783C128.644 116.008 129.099 116.679 129.586 117.245C130.072 117.811 130.768 118.351 131.501 118.183C132.022 117.989 132.467 117.635 132.773 117.172C133.245 116.562 133.86 116.078 134.563 115.762C134.916 115.61 135.304 115.555 135.685 115.605C136.067 115.655 136.427 115.807 136.73 116.045C137.4 116.648 137.63 117.827 138.52 117.979C138.733 117.999 138.949 117.972 139.151 117.898C139.353 117.825 139.536 117.707 139.687 117.554C140.006 117.271 140.247 116.915 140.55 116.616C141.11 116.056 142.005 115.689 142.691 116.092C142.984 116.278 143.221 116.541 143.376 116.852Z" fill="#17CBEB"/>
</g>
</g>
</g>
<defs>
<clipPath id="clip0_1876_5882">
<rect width="156" height="131" fill="white"/>
</clipPath>
</defs>
</svg>
