<svg width="19" height="20" viewBox="0 0 19 20" fill="none" xmlns="http://www.w3.org/2000/svg">
<path d="M9.09091 20C4.03909 18.8773 0 14.1109 0 9.09091V3.63636L9.09091 0L18.1818 3.63636V9.09091C18.1818 14.1127 14.1427 18.8773 9.09091 20ZM1.81818 4.54545V9.09091C1.87013 11.1928 2.60942 13.2199 3.92289 14.8617C5.23636 16.5035 7.05164 17.6697 9.09091 18.1818C11.1302 17.6697 12.9455 16.5035 14.2589 14.8617C15.5724 13.2199 16.3117 11.1928 16.3636 9.09091V4.54545L9.09091 1.81818L1.81818 4.54545Z" fill="#646464"/>
<path d="M9.09084 9.09086C10.346 9.09086 11.3636 8.07333 11.3636 6.81814C11.3636 5.56294 10.346 4.54541 9.09084 4.54541C7.83565 4.54541 6.81812 5.56294 6.81812 6.81814C6.81812 8.07333 7.83565 9.09086 9.09084 9.09086Z" fill="#646464"/>
<path d="M4.54541 12.7273C4.99349 13.5438 5.65049 14.2266 6.44917 14.7059C7.24785 15.1851 8.15952 15.4434 9.09086 15.4545C10.0222 15.4434 10.9339 15.1851 11.7326 14.7059C12.5312 14.2266 13.1882 13.5438 13.6363 12.7273C13.6136 11.0036 10.5981 10 9.09086 10C7.57541 10 4.56814 11.0036 4.54541 12.7273Z" fill="#646464"/>
</svg>
