<svg width="22" height="22" viewBox="0 0 22 22" fill="none" xmlns="http://www.w3.org/2000/svg">
<path d="M2.79169 17.4166V6.91663H19.2084V17.4166C19.2084 18.1488 18.6072 18.75 17.875 18.75H4.12502C3.39283 18.75 2.79169 18.1488 2.79169 17.4166Z" stroke="#646464"/>
<path d="M19.7084 4.58333V7.33333H2.29169V4.58333C2.29169 3.575 3.11669 2.75 4.12502 2.75H17.875C18.8834 2.75 19.7084 3.575 19.7084 4.58333Z" fill="#646464"/>
<path d="M15.125 5.95837C15.8844 5.95837 16.5 5.34277 16.5 4.58337C16.5 3.82398 15.8844 3.20837 15.125 3.20837C14.3656 3.20837 13.75 3.82398 13.75 4.58337C13.75 5.34277 14.3656 5.95837 15.125 5.95837Z" fill="#646464"/>
<path d="M6.875 5.95837C7.63439 5.95837 8.25 5.34277 8.25 4.58337C8.25 3.82398 7.63439 3.20837 6.875 3.20837C6.11561 3.20837 5.5 3.82398 5.5 4.58337C5.5 5.34277 6.11561 5.95837 6.875 5.95837Z" fill="#646464"/>
<path d="M15.125 1.375C14.6208 1.375 14.2083 1.7875 14.2083 2.29167V4.58333C14.2083 5.0875 14.6208 5.5 15.125 5.5C15.6291 5.5 16.0416 5.0875 16.0416 4.58333V2.29167C16.0416 1.7875 15.6291 1.375 15.125 1.375ZM6.87498 1.375C6.37081 1.375 5.95831 1.7875 5.95831 2.29167V4.58333C5.95831 5.0875 6.37081 5.5 6.87498 5.5C7.37915 5.5 7.79165 5.0875 7.79165 4.58333V2.29167C7.79165 1.7875 7.37915 1.375 6.87498 1.375Z" fill="#646464"/>
<path d="M10.175 16.1791C10.175 16.0875 10.175 15.95 10.2208 15.8583C10.2667 15.7666 10.3125 15.675 10.4042 15.6291C10.4958 15.5833 10.5417 15.4916 10.6333 15.4916C10.725 15.4458 10.8625 15.4458 10.9542 15.4458C11.0458 15.4458 11.1833 15.4458 11.275 15.4916L11.55 15.6291C11.6417 15.675 11.6875 15.7666 11.7333 15.8583C11.7792 15.95 11.7792 16.0416 11.7792 16.1791C11.7792 16.2708 11.7792 16.4083 11.7333 16.5C11.6875 16.5916 11.6417 16.6833 11.55 16.7291C11.4583 16.775 11.4125 16.8666 11.275 16.8666C11.1375 16.8666 11.1375 16.9583 11 16.9583C10.8625 16.9583 10.7708 16.9583 10.6792 16.9125C10.5875 16.8666 10.4958 16.8208 10.45 16.775C10.3583 16.7291 10.3125 16.6375 10.2667 16.5458C10.2208 16.4083 10.175 16.3166 10.175 16.1791ZM11.5958 14.2083H10.4042L10.2208 9.16663H11.7333L11.5958 14.2083Z" fill="#646464"/>
</svg>
