<svg width="12" height="14" viewBox="0 0 12 14" fill="none" xmlns="http://www.w3.org/2000/svg">
<path d="M2.7 14C1.98325 13.9971 1.29682 13.7105 0.790846 13.2028C0.284868 12.6951 0.000522875 12.0078 0 11.291C0.00234622 10.1582 0.237548 9.03805 0.691 8C1.076 7.12181 1.58411 6.30293 2.2 5.568C2.76385 4.889 3.40446 4.27759 4.109 3.746L2.509 1.328C2.46576 1.26101 2.44647 1.18135 2.45428 1.102C2.46209 1.02265 2.49653 0.948279 2.552 0.891C2.7687 0.638286 3.03657 0.434432 3.33789 0.292906C3.63921 0.151381 3.96714 0.0754056 4.3 0.07C4.89848 0.104331 5.48634 0.243088 6.037 0.48C6.08908 0.499642 6.14434 0.509474 6.2 0.509C6.44775 0.48159 6.68875 0.410847 6.912 0.3C7.26367 0.125234 7.64698 0.0231989 8.039 0C8.27318 0.00450247 8.50403 0.0563485 8.71765 0.152417C8.93127 0.248485 9.12324 0.386788 9.282 0.559C9.33653 0.611266 9.37234 0.680025 9.38391 0.754667C9.39548 0.829308 9.38215 0.905682 9.346 0.972L7.864 3.726C8.58038 4.26072 9.23032 4.8791 9.8 5.568C10.4172 6.30199 10.9254 7.12107 11.309 8C11.7625 9.03805 11.9977 10.1582 12 11.291C11.9995 12.0078 11.7151 12.6951 11.2092 13.2028C10.7032 13.7105 10.0167 13.9971 9.3 14H2.7Z" fill="black"/>
</svg>
