<svg width="15" height="14" viewBox="0 0 15 14" fill="none" xmlns="http://www.w3.org/2000/svg">
<path d="M3.36196 12.9L4.25096 8.96002C4.25758 8.89694 4.23928 8.83378 4.19996 8.78402L1.15696 6.11902C1.09214 6.07423 1.0435 6.00971 1.01828 5.93506C0.993057 5.86041 0.992602 5.77961 1.01698 5.70468C1.04136 5.62975 1.08927 5.56469 1.15358 5.51916C1.2179 5.47364 1.29519 5.45009 1.37396 5.45202L5.39996 5.07902C5.46141 5.06351 5.51445 5.0248 5.54796 4.97102L7.14896 1.26202C7.17188 1.18707 7.21826 1.12145 7.28127 1.07483C7.34427 1.02821 7.42058 1.00305 7.49896 1.00305C7.57734 1.00305 7.65365 1.02821 7.71666 1.07483C7.77966 1.12145 7.82604 1.18707 7.84896 1.26202L9.44896 4.97102C9.48239 5.02531 9.53596 5.06415 9.59796 5.07902L13.625 5.45202C13.7037 5.45009 13.781 5.47364 13.8453 5.51916C13.9097 5.56469 13.9576 5.62975 13.9819 5.70468C14.0063 5.77961 14.0059 5.86041 13.9806 5.93506C13.9554 6.00971 13.9068 6.07423 13.842 6.11902L10.806 8.78402C10.7646 8.83258 10.7438 8.89536 10.748 8.95902L11.637 12.899C11.6632 12.9734 11.6647 13.0543 11.6412 13.1296C11.6177 13.2049 11.5705 13.2706 11.5067 13.3169C11.4428 13.3632 11.3657 13.3877 11.2868 13.3866C11.208 13.3856 11.1315 13.359 11.069 13.311L7.59196 11.249C7.5628 11.2369 7.53154 11.2307 7.49996 11.2307C7.46839 11.2307 7.43712 11.2369 7.40796 11.249L3.92996 13.311C3.85939 13.3551 3.77818 13.3793 3.69496 13.381C3.63795 13.3796 3.58208 13.3648 3.5319 13.3377C3.48171 13.3106 3.43863 13.2721 3.40617 13.2252C3.37371 13.1783 3.35279 13.1244 3.34511 13.0679C3.33742 13.0114 3.3432 12.9539 3.36196 12.9Z" fill="#222222" stroke="#222222" stroke-width="0.6" stroke-miterlimit="10"/>
</svg>
