<svg width="13" height="15" viewBox="0 0 13 15" fill="none" xmlns="http://www.w3.org/2000/svg">
<path d="M1.82906 13.5879C1.61954 13.5879 1.4186 13.5047 1.27045 13.3566C1.12229 13.2084 1.03906 13.0075 1.03906 12.7979V7.97994C1.03906 7.77042 1.12229 7.56948 1.27045 7.42133C1.4186 7.27317 1.61954 7.18994 1.82906 7.18994H2.75806C2.96768 7.18994 3.16872 7.27314 3.31703 7.42127C3.46534 7.56939 3.5488 7.77033 3.54906 7.97994V12.7979C3.5488 13.0076 3.46534 13.2085 3.31703 13.3566C3.16872 13.5047 2.96768 13.5879 2.75806 13.5879H1.82906ZM10.6141 13.3879C10.4044 13.3879 10.2034 13.3047 10.0551 13.1566C9.90678 13.0085 9.82333 12.8076 9.82306 12.5979V1.82894C9.82333 1.61933 9.90678 1.41839 10.0551 1.27027C10.2034 1.12214 10.4044 1.03894 10.6141 1.03894H11.5391C11.7486 1.03894 11.9495 1.12217 12.0977 1.27033C12.2458 1.41848 12.3291 1.61942 12.3291 1.82894V12.5989C12.3291 12.8085 12.2458 13.0094 12.0977 13.1576C11.9495 13.3057 11.7486 13.3889 11.5391 13.3889L10.6141 13.3879ZM6.22206 13.3879C6.11823 13.3881 6.0154 13.3677 5.91944 13.3281C5.82347 13.2885 5.73627 13.2303 5.6628 13.1569C5.58934 13.0835 5.53106 12.9964 5.49129 12.9005C5.45153 12.8046 5.43106 12.7018 5.43106 12.5979V4.30994C5.43106 4.20611 5.45153 4.1033 5.49129 4.00739C5.53106 3.91148 5.58934 3.82434 5.6628 3.75097C5.73627 3.6776 5.82347 3.61943 5.91944 3.57979C6.0154 3.54015 6.11823 3.51981 6.22206 3.51994H7.15006C7.25389 3.51981 7.35673 3.54015 7.45269 3.57979C7.54865 3.61943 7.63586 3.6776 7.70932 3.75097C7.78279 3.82434 7.84107 3.91148 7.88083 4.00739C7.9206 4.1033 7.94106 4.20611 7.94106 4.30994V12.5999C7.94106 12.7038 7.9206 12.8066 7.88083 12.9025C7.84107 12.9984 7.78279 13.0855 7.70932 13.1589C7.63586 13.2323 7.54865 13.2905 7.45269 13.3301C7.35673 13.3697 7.25389 13.3901 7.15006 13.3899L6.22206 13.3879Z" stroke="#222222" stroke-miterlimit="10"/>
</svg>
