<svg width="16" height="17" viewBox="0 0 16 17" fill="none" xmlns="http://www.w3.org/2000/svg">
<path d="M7.07807 16.32C6.86694 16.3166 6.6654 16.2312 6.51609 16.0819C6.36678 15.9326 6.28142 15.7311 6.27807 15.52V14.108C6.26548 14.0008 6.2247 13.8989 6.15987 13.8126C6.09505 13.7264 6.0085 13.6589 5.90907 13.617C5.80609 13.5745 5.69287 13.5634 5.58363 13.5852C5.47438 13.6069 5.37399 13.6604 5.29507 13.739L4.25207 14.784C4.17959 14.8568 4.09342 14.9147 3.99851 14.9541C3.90361 14.9936 3.80185 15.0139 3.69907 15.0139C3.59629 15.0139 3.49453 14.9936 3.39962 14.9541C3.30472 14.9147 3.21855 14.8568 3.14607 14.784L1.85607 13.493C1.77424 13.4268 1.70927 13.3422 1.66651 13.2461C1.62374 13.1499 1.6044 13.045 1.61007 12.94C1.62657 12.733 1.71337 12.5378 1.85607 12.387L2.90007 11.343C2.97583 11.2623 3.02728 11.1619 3.0485 11.0532C3.06973 10.9446 3.05988 10.8322 3.02007 10.729C2.99674 10.619 2.93455 10.5212 2.84491 10.4534C2.75527 10.3856 2.6442 10.3525 2.53207 10.36H1.12007C0.909019 10.3564 0.707621 10.2709 0.558365 10.1217C0.409109 9.97241 0.323668 9.77101 0.320068 9.55996L0.320068 7.71796C0.323418 7.50683 0.408779 7.30529 0.558088 7.15598C0.707397 7.00667 0.90894 6.92131 1.12007 6.91796H2.53207C2.63842 6.90486 2.73947 6.86407 2.82511 6.79967C2.91075 6.73526 2.97797 6.6495 3.02007 6.55096C3.06253 6.44792 3.0735 6.3346 3.05161 6.22532C3.02972 6.11604 2.97594 6.0157 2.89707 5.93696L1.85607 4.89196C1.7743 4.82577 1.70938 4.74114 1.66662 4.64502C1.62386 4.5489 1.60448 4.44402 1.61007 4.33896C1.62674 4.13171 1.71351 3.93631 1.85607 3.78496L3.14607 2.49496C3.21842 2.42185 3.30454 2.36382 3.39946 2.32421C3.49438 2.2846 3.59621 2.2642 3.69907 2.2642C3.80192 2.2642 3.90375 2.2846 3.99868 2.32421C4.0936 2.36382 4.17972 2.42185 4.25207 2.49496L5.29707 3.53996C5.3773 3.61643 5.47758 3.66858 5.58626 3.69035C5.69494 3.71212 5.80757 3.70263 5.91107 3.66296C6.02144 3.63937 6.11957 3.57669 6.18738 3.48646C6.25519 3.39623 6.28811 3.28454 6.28007 3.17196V1.75996C6.28342 1.54883 6.36878 1.34729 6.51809 1.19798C6.6674 1.04867 6.86894 0.963311 7.08007 0.959961L8.92007 0.959961C9.13112 0.963561 9.33252 1.049 9.48177 1.19826C9.63103 1.34751 9.71647 1.54891 9.72007 1.75996V3.17196C9.73286 3.27892 9.77361 3.38062 9.83821 3.46682C9.90282 3.55302 9.989 3.62067 10.0881 3.66296C10.1913 3.7055 10.3047 3.71652 10.4142 3.69463C10.5237 3.67274 10.6242 3.61892 10.7031 3.53996L11.7481 2.49596C11.8203 2.42288 11.9064 2.36487 12.0012 2.32527C12.096 2.28568 12.1978 2.26529 12.3006 2.26529C12.4033 2.26529 12.5051 2.28568 12.5999 2.32527C12.6948 2.36487 12.7808 2.42288 12.8531 2.49596L14.1441 3.78596C14.2259 3.85236 14.2908 3.93717 14.3335 4.03345C14.3763 4.12973 14.3957 4.23476 14.3901 4.33996C14.3734 4.54692 14.2866 4.742 14.1441 4.89296L13.0991 5.93696C13.0229 6.01737 12.971 6.11769 12.9494 6.22634C12.9278 6.33499 12.9374 6.44753 12.9771 6.55096C13.0005 6.66144 13.0631 6.75969 13.1534 6.82754C13.2436 6.89538 13.3554 6.92821 13.4681 6.91996H14.8811C15.0922 6.92331 15.2937 7.00867 15.443 7.15798C15.5924 7.30729 15.6777 7.50883 15.6811 7.71996V9.55996C15.6775 9.77101 15.592 9.97241 15.4428 10.1217C15.2935 10.2709 15.0921 10.3564 14.8811 10.36H13.4681C13.361 10.3725 13.2592 10.4131 13.1729 10.4777C13.0867 10.5424 13.0191 10.6287 12.9771 10.728C12.9347 10.8311 12.9236 10.9445 12.9453 11.0539C12.967 11.1632 13.0205 11.2638 13.0991 11.343L14.1441 12.388C14.2259 12.4541 14.2909 12.5387 14.3336 12.6349C14.3764 12.731 14.3957 12.8359 14.3901 12.941C14.3736 13.148 14.2868 13.3431 14.1441 13.494L12.8531 14.785C12.7807 14.8579 12.6947 14.9158 12.5998 14.9553C12.505 14.9949 12.4033 15.0152 12.3006 15.0152C12.1978 15.0152 12.0961 14.9949 12.0013 14.9553C11.9065 14.9158 11.8204 14.8579 11.7481 14.785L10.7031 13.74C10.6224 13.6638 10.522 13.6119 10.4132 13.5903C10.3043 13.5687 10.1917 13.5783 10.0881 13.618C9.97778 13.6416 9.87976 13.7043 9.81211 13.7945C9.74447 13.8848 9.71177 13.9965 9.72007 14.109V15.522C9.71647 15.733 9.63103 15.9344 9.48177 16.0837C9.33252 16.2329 9.13112 16.3184 8.92007 16.322L7.07807 16.32Z" fill="#333539" stroke="#333539" stroke-width="0.576" stroke-miterlimit="10"/>
</svg>
